<?xml version="1.0" standalone="no"?>
<!DOCTYPE svg PUBLIC "-//W3C//DTD SVG 20010904//EN"
 "http://www.w3.org/TR/2001/REC-SVG-20010904/DTD/svg10.dtd">
<svg version="1.0" xmlns="http://www.w3.org/2000/svg"
 width="433.000000pt" height="433.000000pt" viewBox="0 0 433.000000 433.000000"
 preserveAspectRatio="xMidYMid meet">
<metadata>
Created by potrace 1.11, written by Peter Selinger 2001-2013
</metadata>
<g transform="translate(0.000000,433.000000) scale(0.100000,-0.100000)"
fill="#000000" stroke="none">
<path d="M1582 3749 c-13 -5 -20 -13 -17 -19 3 -5 2 -10 -3 -10 -13 0 -30
-138 -18 -150 7 -7 6 -10 -1 -10 -7 0 -13 -15 -15 -32 l-3 -33 -100 -6 c-154
-9 -243 -47 -340 -145 -52 -51 -113 -150 -101 -162 3 -3 2 -10 -3 -16 -31 -37
-32 -286 -1 -286 4 0 6 -8 3 -19 -2 -10 1 -24 9 -32 7 -8 15 -23 16 -34 4 -22
59 -105 70 -105 4 0 16 -14 27 -30 11 -17 26 -28 32 -25 7 2 12 -1 10 -6 -5
-24 90 -77 252 -140 23 -9 23 -12 17 -81 -6 -57 -13 -78 -37 -107 -28 -36 -55
-107 -61 -166 -3 -34 0 -33 -118 -16 -113 16 -200 19 -299 10 -133 -12 -214
-35 -341 -96 -97 -47 -126 -67 -186 -127 -127 -128 -168 -231 -168 -432 -1
-93 2 -125 14 -139 9 -11 10 -16 3 -11 -8 4 -13 1 -13 -8 0 -10 6 -13 18 -10
15 5 15 4 1 -5 -15 -10 -14 -17 8 -83 45 -137 127 -278 157 -270 6 2 8 0 4 -4
-11 -10 12 -35 25 -27 6 3 7 1 3 -5 -9 -15 74 -79 154 -119 62 -31 181 -61
265 -67 22 -2 47 -6 55 -9 8 -3 83 -18 165 -32 83 -14 206 -37 275 -51 68 -13
130 -22 136 -20 7 3 14 1 16 -4 2 -5 21 -11 43 -14 22 -2 47 -6 55 -9 8 -4 40
-11 70 -17 77 -15 101 -19 130 -26 14 -3 36 -8 50 -10 14 -2 68 -13 120 -24
149 -30 677 -120 708 -120 82 0 219 61 230 102 2 10 9 18 14 18 6 0 8 9 5 19
-3 12 1 22 10 25 8 4 95 -10 192 -29 273 -54 478 -85 562 -85 145 0 263 55
343 159 96 125 128 226 130 416 1 167 -17 226 -97 307 -67 69 -150 112 -242
127 -161 26 -481 82 -492 86 -7 2 -13 14 -13 25 0 12 -4 30 -10 40 -7 13 -6
19 6 24 8 3 13 10 10 15 -3 5 2 8 12 7 26 -2 63 119 69 232 4 64 3 92 -5 92
-6 0 -9 6 -6 13 3 8 -2 20 -11 27 -19 16 -19 30 -1 30 15 0 27 74 30 189 0 33
4 61 9 61 4 0 7 16 7 34 0 19 7 86 15 148 19 152 28 242 29 310 1 31 3 55 6
53 9 -6 45 354 45 450 0 135 -43 203 -152 239 -63 21 -317 54 -367 48 -27 -3
-37 -1 -32 7 6 8 -5 10 -36 5 -31 -4 -39 -3 -28 5 15 11 -7 13 -103 13 -29 -1
-45 3 -41 9 4 7 -11 8 -42 4 -38 -5 -45 -4 -34 5 11 9 2 10 -40 5 -41 -5 -51
-3 -40 5 11 8 3 9 -34 4 -37 -5 -47 -4 -41 5 5 10 -4 11 -40 5 -30 -4 -46 -3
-42 3 4 6 -35 14 -96 21 -292 34 -454 54 -584 72 -161 23 -150 22 -181 9z
m105 -35 c-3 -3 -12 -4 -19 -1 -8 3 -5 6 6 6 11 1 17 -2 13 -5z m150 -20 c-3
-3 -12 -4 -19 -1 -8 3 -5 6 6 6 11 1 17 -2 13 -5z m276 -31 c-7 -2 -19 -2 -25
0 -7 3 -2 5 12 5 14 0 19 -2 13 -5z m160 -20 c-7 -2 -19 -2 -25 0 -7 3 -2 5
12 5 14 0 19 -2 13 -5z m94 -9 c-3 -3 -12 -4 -19 -1 -8 3 -5 6 6 6 11 1 17 -2
13 -5z m143 -18 c0 -2 -7 -7 -16 -10 -8 -3 -12 -2 -9 4 6 10 25 14 25 6z m607
-82 c-3 -3 -12 -4 -19 -1 -8 3 -5 6 6 6 11 1 17 -2 13 -5z m-1047 -38 c47 -8
103 -17 125 -20 101 -13 389 -57 394 -60 3 -2 29 -6 56 -10 86 -10 319 -46
338 -52 31 -10 46 -61 36 -124 -4 -30 -10 -77 -13 -105 -2 -27 -10 -88 -16
-135 -6 -47 -13 -98 -15 -115 -2 -16 -8 -66 -14 -110 -6 -44 -13 -98 -15 -120
-8 -66 -25 -188 -30 -215 -3 -14 -8 -47 -11 -73 -10 -91 -21 -97 -140 -77 -33
5 -82 12 -110 15 -27 3 -57 8 -65 10 -8 2 -40 7 -70 10 -30 4 -149 20 -265 36
-115 16 -228 32 -250 35 -22 3 -94 14 -160 25 -66 10 -123 19 -127 19 -4 0
-14 7 -23 16 -17 17 -16 66 6 259 5 50 12 113 15 140 10 102 24 231 28 255 2
14 7 61 11 105 4 44 8 87 10 95 1 8 6 51 10 95 5 61 12 86 28 104 21 22 27 23
102 17 44 -3 118 -12 165 -20z m-815 -336 c3 -6 -1 -7 -9 -4 -18 7 -21 14 -7
14 6 0 13 -4 16 -10z m-100 -130 c-3 -5 -12 -10 -18 -10 -7 0 -6 4 3 10 19 12
23 12 15 0z m462 -566 c-3 -3 -12 -4 -19 -1 -8 3 -5 6 6 6 11 1 17 -2 13 -5z
m40 -10 c-3 -3 -12 -4 -19 -1 -8 3 -5 6 6 6 11 1 17 -2 13 -5z m400 -100 c-3
-3 -12 -4 -19 -1 -8 3 -5 6 6 6 11 1 17 -2 13 -5z m150 -20 c-3 -3 -12 -4 -19
-1 -8 3 -5 6 6 6 11 1 17 -2 13 -5z m150 -20 c-3 -3 -12 -4 -19 -1 -8 3 -5 6
6 6 11 1 17 -2 13 -5z m-910 -58 c18 -1 33 -4 33 -7 0 -4 9 -9 20 -12 11 -3
20 0 20 6 0 7 4 6 9 -2 5 -8 16 -11 26 -8 13 6 15 3 10 -16 -9 -27 -25 -46
-25 -28 0 8 -6 11 -15 7 -8 -3 -15 -2 -15 2 0 7 -53 13 -127 16 -36 1 -35 1
-27 33 5 17 11 20 32 16 15 -3 42 -6 59 -7z m238 -41 c28 -2 50 -4 50 -5 0 -4
45 -11 86 -13 26 -1 44 -6 41 -11 -3 -5 5 -7 16 -4 13 4 22 1 23 -5 0 -9 2 -9
5 0 4 9 12 9 32 2 28 -11 97 -22 145 -23 15 -1 27 -3 27 -6 0 -3 14 -6 31 -6
39 -2 43 -7 35 -41 -5 -19 -10 -23 -16 -14 -4 8 -17 12 -29 8 -12 -3 -21 -2
-21 2 0 4 -17 8 -37 9 -21 2 -53 7 -71 13 -18 6 -42 9 -53 6 -10 -3 -19 -1
-19 5 0 6 -7 8 -15 4 -8 -3 -15 -2 -15 2 0 4 -12 7 -27 8 -71 3 -133 9 -133
14 0 3 -15 7 -32 8 -18 1 -57 7 -85 13 -47 9 -52 12 -43 29 7 13 17 17 33 14
12 -3 45 -7 72 -9z m569 -87 c-5 -8 0 -9 14 -6 12 4 22 2 22 -3 0 -5 5 -9 11
-9 5 0 7 4 4 10 -4 6 5 6 22 -1 34 -13 87 -23 130 -23 17 0 30 -3 27 -7 -3 -6
23 -9 113 -13 17 0 29 -5 25 -10 -3 -5 5 -7 16 -4 12 4 22 2 22 -3 0 -5 10 -8
23 -8 12 1 42 -3 67 -7 25 -4 57 -8 73 -9 15 0 27 -4 27 -10 0 -5 5 -3 10 5 7
11 10 11 10 2 0 -7 5 -10 10 -7 11 7 13 -6 4 -29 -6 -16 -34 -23 -34 -8 0 4
-21 8 -46 9 -26 1 -50 5 -53 10 -3 4 -28 8 -56 8 -27 -1 -84 6 -125 15 -41 8
-85 15 -97 14 -13 -1 -23 1 -23 5 0 3 -12 7 -27 7 -16 1 -50 5 -78 9 -27 4
-56 7 -62 8 -7 0 -13 4 -13 8 0 4 -9 5 -20 2 -15 -4 -19 -1 -15 11 3 9 7 23
10 31 2 8 7 15 10 15 4 0 3 -5 -1 -12z m-617 -94 c-3 -3 -12 -4 -19 -1 -8 3
-5 6 6 6 11 1 17 -2 13 -5z m150 -20 c-3 -3 -12 -4 -19 -1 -8 3 -5 6 6 6 11 1
17 -2 13 -5z m1218 -9 c28 -2 50 -5 50 -5 0 -1 17 -3 37 -6 21 -2 64 -10 98
-17 33 -8 60 -11 60 -7 0 5 9 6 20 3 22 -6 25 -20 10 -43 -8 -13 -21 -12 -110
6 -67 14 -100 17 -100 10 0 -6 -5 -4 -10 4 -5 8 -10 12 -10 9 0 -4 -30 0 -66
7 -36 8 -70 12 -75 8 -10 -6 -13 29 -3 39 3 3 16 3 27 1 12 -3 45 -7 72 -9z
m-984 -33 c-7 -2 -18 1 -23 6 -8 8 -4 9 13 5 13 -4 18 -8 10 -11z m162 -19
c-7 -2 -19 -2 -25 0 -7 3 -2 5 12 5 14 0 19 -2 13 -5z m-458 -53 c61 -11 229
-38 375 -60 146 -22 312 -49 370 -59 58 -11 122 -22 143 -25 50 -7 67 -21 67
-57 0 -17 -59 -146 -149 -321 -221 -435 -246 -482 -273 -497 -22 -13 -41 -11
-169 13 -79 16 -157 30 -174 33 -16 2 -73 13 -125 23 -52 10 -185 35 -295 55
-386 70 -421 78 -429 108 -3 14 15 55 58 126 35 59 89 149 120 201 31 52 60
102 66 110 6 8 40 67 76 130 73 129 78 137 117 197 26 39 31 43 70 43 23 0 92
-9 152 -20z m842 -6 c-3 -3 -12 -4 -19 -1 -8 3 -5 6 6 6 11 1 17 -2 13 -5z
m-2208 -113 c25 -16 -6 -41 -50 -41 -39 0 -44 5 -33 34 7 18 59 22 83 7z m652
-54 l28 -12 -21 -48 c-25 -58 -21 -63 59 -73 40 -5 52 -10 57 -27 3 -11 1 -28
-5 -36 -8 -12 -8 -10 -4 9 l7 25 -18 -24 c-13 -18 -14 -26 -5 -29 8 -3 9 -8 1
-17 -9 -11 -22 -10 -73 2 -34 8 -72 12 -84 10 -16 -3 -20 0 -16 12 3 9 -4 5
-16 -9 -11 -14 -19 -31 -16 -37 2 -7 -1 -12 -8 -10 -7 1 -11 -7 -10 -19 2 -16
-4 -23 -22 -26 -22 -5 -89 13 -102 26 -4 3 8 26 25 50 18 24 32 47 32 49 0 3
-24 11 -54 17 -29 6 -61 16 -70 23 -15 11 -14 16 14 58 l30 46 52 -17 c103
-34 93 -37 119 25 25 61 29 62 100 32z m2702 -323 c76 -17 193 -72 223 -105
17 -18 16 -19 -25 -19 -26 0 -52 7 -69 20 -85 63 -269 89 -382 55 -112 -35
-204 -102 -237 -172 -12 -28 -12 -28 -10 -3 1 14 6 31 11 39 6 10 5 12 -2 7
-7 -4 -12 -2 -12 4 0 7 9 14 19 17 13 3 18 12 16 24 -2 11 0 17 6 14 5 -4 9 0
9 8 0 17 59 59 115 83 104 43 225 53 338 28z m37 -98 c25 -9 56 -25 69 -35 20
-15 22 -21 12 -39 -11 -21 -11 -21 -59 9 -154 95 -399 45 -447 -92 -38 -107 8
-195 130 -251 68 -31 199 -31 266 -1 121 54 171 148 133 247 -6 16 -4 17 14 7
11 -6 29 -11 40 -11 24 0 32 -18 32 -71 0 -105 -108 -208 -248 -238 -227 -48
-452 72 -452 241 0 63 17 107 59 151 41 44 73 63 151 89 68 22 230 19 300 -6z
m-3490 -46 c6 -11 8 -20 6 -20 -3 0 -10 9 -16 20 -6 11 -8 20 -6 20 3 0 10 -9
16 -20z m3435 -67 c93 -48 112 -150 38 -198 -122 -81 -330 -33 -334 76 -1 45
17 89 38 89 8 0 12 4 9 9 -5 8 10 15 94 45 25 9 123 -5 155 -21z m348 -118 c1
-108 -67 -211 -187 -283 -83 -51 -151 -65 -286 -59 -131 5 -184 21 -271 78
-90 60 -163 171 -143 217 14 33 13 50 -2 56 -13 5 -14 9 -4 21 6 8 9 19 5 25
-3 5 0 10 7 10 9 0 9 3 -2 10 -13 8 -13 10 2 10 13 0 16 -7 11 -34 -3 -18 -1
-36 5 -40 6 -4 8 2 4 16 -3 13 -1 19 5 15 6 -4 13 -29 16 -57 14 -114 87 -199
217 -250 68 -26 84 -29 181 -27 103 2 109 4 192 45 130 64 182 139 179 259 -1
52 3 75 13 83 8 7 15 22 16 34 0 15 7 8 21 -24 14 -29 21 -66 21 -105z m-1446
119 c3 -9 0 -20 -8 -25 -17 -11 -21 -11 -38 0 -19 12 -6 41 19 41 11 0 23 -7
27 -16z m598 -12 c-8 -8 -25 10 -19 20 4 6 9 5 15 -3 4 -7 6 -15 4 -17z
m-2855 -34 c9 -20 9 -21 -2 -7 -7 9 -20 18 -28 22 -12 4 -12 6 2 6 10 1 22 -9
28 -21z m2870 -15 c0 -7 -6 -10 -14 -7 -8 3 -12 13 -9 25 5 16 8 18 14 7 5 -7
9 -18 9 -25z m-2209 -1 c-7 -2 -18 1 -23 6 -8 8 -4 9 13 5 13 -4 18 -8 10 -11z
m-627 -21 c4 -5 -3 -7 -14 -4 -23 6 -26 13 -6 13 8 0 17 -4 20 -9z m23 -33
c-3 -8 -6 -5 -6 6 -1 11 2 17 5 13 3 -3 4 -12 1 -19z m33 -18 c0 -5 -2 -10 -4
-10 -3 0 -8 5 -11 10 -3 6 -1 10 4 10 6 0 11 -4 11 -10z m61 -29 c21 -7 39
-20 42 -31 3 -13 1 -17 -9 -13 -8 3 -12 8 -9 12 2 4 -4 7 -13 7 -9 -1 -18 3
-19 9 -1 5 -11 12 -22 17 -12 4 -21 13 -21 20 0 9 3 10 8 2 4 -6 23 -16 43
-23z m2024 4 c0 -22 -31 -33 -48 -16 -7 7 -6 15 3 26 17 21 45 15 45 -10z
m-1954 -42 c0 -10 3 -13 5 -7 6 15 51 6 58 -12 4 -9 -2 -14 -15 -14 -12 0 -17
4 -13 11 4 7 0 9 -14 5 -15 -5 -24 -1 -32 14 -7 13 -7 20 0 20 5 0 10 -8 11
-17z m-121 -53 c0 -5 -5 -10 -11 -10 -5 0 -7 5 -4 10 3 6 8 10 11 10 2 0 4 -4
4 -10z m1303 -7 c-7 -2 -19 -2 -25 0 -7 3 -2 5 12 5 14 0 19 -2 13 -5z m-606
-49 c-3 -3 -12 -4 -19 -1 -8 3 -5 6 6 6 11 1 17 -2 13 -5z m1230 0 c-3 -3 -12
-4 -19 -1 -8 3 -5 6 6 6 11 1 17 -2 13 -5z m-1760 -10 c-3 -3 -12 -4 -19 -1
-8 3 -5 6 6 6 11 1 17 -2 13 -5z m58 -14 c19 -8 19 -9 -2 -9 -12 -1 -25 4 -28
9 -7 12 2 12 30 0z m242 -46 c-3 -3 -12 -4 -19 -1 -8 3 -5 6 6 6 11 1 17 -2
13 -5z m73 -24 c0 -5 -2 -10 -4 -10 -3 0 -8 5 -11 10 -3 6 -1 10 4 10 6 0 11
-4 11 -10z m1832 -27 c-6 -2 -9 -9 -6 -14 21 -34 -162 -138 -243 -139 -30 0
-10 28 23 34 70 14 142 48 180 87 21 21 43 39 49 38 5 0 4 -3 -3 -6z m-1105
-29 c-3 -3 -12 -4 -19 -1 -8 3 -5 6 6 6 11 1 17 -2 13 -5z m360 0 c-3 -3 -12
-4 -19 -1 -8 3 -5 6 6 6 11 1 17 -2 13 -5z m213 -58 c0 -2 -9 -6 -20 -9 -11
-3 -18 -1 -14 4 5 9 34 13 34 5z m-503 -22 c-3 -3 -12 -4 -19 -1 -8 3 -5 6 6
6 11 1 17 -2 13 -5z m50 -10 c-3 -3 -12 -4 -19 -1 -8 3 -5 6 6 6 11 1 17 -2
13 -5z m1091 -19 c-3 -3 -9 2 -12 12 -6 14 -5 15 5 6 7 -7 10 -15 7 -18z
m-351 -121 c-3 -3 -12 -4 -19 -1 -8 3 -5 6 6 6 11 1 17 -2 13 -5z"/>
<path d="M1821 3467 c-5 -12 -11 -56 -15 -96 -3 -41 -10 -111 -15 -155 -12
-92 -29 -256 -36 -331 -3 -27 -11 -115 -20 -194 -18 -172 -19 -218 -3 -227 10
-6 99 -22 228 -40 52 -7 508 -71 560 -78 239 -35 317 -41 334 -27 7 6 16 32
19 59 4 26 9 61 11 77 6 34 33 238 42 305 3 25 7 56 9 70 3 14 9 63 14 110 6
47 17 139 26 205 19 151 19 162 -2 174 -10 5 -99 21 -198 36 -99 14 -193 28
-210 31 -16 2 -133 20 -260 39 -126 20 -246 38 -265 41 -19 3 -59 9 -89 14
-90 16 -120 13 -130 -13z m40 -17 c6 0 7 5 3 12 -5 8 0 9 17 5 13 -4 29 -7 35
-7 7 0 14 -9 17 -20 3 -11 1 -20 -4 -20 -5 0 -9 7 -9 15 0 8 -7 15 -16 15 -9
0 -12 -5 -8 -12 5 -7 3 -8 -7 -2 -8 5 -20 9 -28 9 -8 0 -15 6 -17 13 -1 7 0 8
3 2 2 -5 9 -10 14 -10z m111 1 c-9 -5 8 -7 42 -6 37 2 54 -1 49 -8 -4 -6 2 -8
15 -5 14 4 22 0 25 -11 3 -11 -2 -17 -14 -18 -11 -1 -19 2 -19 8 0 5 -5 9 -11
9 -5 0 -8 -4 -5 -8 3 -5 -1 -9 -8 -9 -8 0 -12 6 -9 13 2 6 -1 15 -8 20 -8 4
-10 3 -5 -4 4 -7 3 -12 -3 -12 -5 0 -12 4 -16 10 -6 10 -36 2 -47 -14 -4 -6
-8 1 -8 17 0 19 5 27 18 27 13 0 14 -2 4 -9z m178 -32 c0 -5 -8 -9 -17 -8 -11
0 -13 3 -5 6 6 2 9 10 6 15 -4 7 -2 8 4 4 7 -4 12 -11 12 -17z m85 -9 c4 -6
-7 -10 -27 -9 -31 1 -32 1 -8 9 14 4 26 8 27 9 1 1 5 -3 8 -9z m-328 -6 c-3
-3 -12 -4 -19 -1 -8 3 -5 6 6 6 11 1 17 -2 13 -5z m-17 -24 c8 -5 11 -10 5
-10 -5 0 -17 5 -25 10 -8 5 -10 10 -5 10 6 0 17 -5 25 -10z m63 3 c-7 -2 -21
-2 -30 0 -10 3 -4 5 12 5 17 0 24 -2 18 -5z m77 -8 c0 -8 8 -15 18 -16 14 0
14 -2 -3 -8 l-20 -8 20 -6 c11 -3 36 -4 55 -2 32 3 35 1 36 -24 1 -23 -2 -26
-25 -25 -14 1 -37 3 -50 3 -16 1 -21 6 -18 15 3 8 -1 17 -9 20 -8 3 -14 18
-15 33 l-1 28 -8 -29 c-5 -16 -6 -34 -3 -40 3 -6 2 -7 -3 -3 -5 5 -9 24 -9 43
0 26 4 34 18 34 9 0 17 -7 17 -15z m52 -7 c-5 -18 -7 -19 -10 -6 -2 11 -9 15
-19 11 -11 -4 -14 -2 -9 5 4 7 15 12 26 12 14 0 17 -5 12 -22z m208 12 c0 -5
-8 -10 -17 -10 -15 0 -16 2 -3 10 19 12 20 12 20 0z m30 0 c0 -5 -5 -10 -11
-10 -5 0 -7 5 -4 10 3 6 8 10 11 10 2 0 4 -4 4 -10z m-473 -6 c-3 -3 -12 -4
-19 -1 -8 3 -5 6 6 6 11 1 17 -2 13 -5z m623 -9 c0 -10 -10 -15 -31 -15 -27 0
-30 2 -19 15 7 8 21 15 31 15 11 0 19 -7 19 -15z m37 0 c0 -8 -4 -15 -9 -15
-10 0 -11 14 -1 23 9 10 10 9 10 -8z m-629 -20 c-3 -3 -9 2 -12 12 -6 14 -5
15 5 6 7 -7 10 -15 7 -18z m97 15 c14 -6 3 -8 -35 -8 -38 0 -49 3 -35 9 25 10
45 10 70 -1z m365 0 c-8 -5 -22 -9 -30 -9 -10 0 -8 3 5 9 27 12 43 12 25 0z
m235 1 c3 -5 -6 -8 -20 -7 -35 4 -44 16 -12 16 14 0 28 -4 32 -9z m-342 -8
c-13 -2 -33 -2 -45 0 -13 2 -3 4 22 4 25 0 35 -2 23 -4z m101 -16 c33 1 36 -2
36 -25 0 -27 -1 -27 -75 -27 -40 0 -69 2 -63 6 7 5 7 12 -1 25 -9 17 -10 17
-11 2 0 -19 -5 -23 -43 -32 -25 -6 -27 -4 -25 22 2 29 2 29 65 28 51 -2 63 1
63 14 0 13 2 13 9 0 6 -8 24 -14 45 -13z m323 17 c-3 -3 -12 -4 -19 -1 -8 3
-5 6 6 6 11 1 17 -2 13 -5z m80 -18 c1 -1 -2 -15 -6 -32 -9 -29 -9 -29 -10 -3
-1 24 -4 26 -41 23 -23 -1 -40 2 -40 8 0 5 7 8 15 4 8 -3 15 -1 15 5 0 9 56 4
67 -5z m-868 -5 c9 -6 10 -11 2 -15 -6 -4 -11 -2 -11 4 0 6 -4 8 -10 5 -5 -3
-10 -1 -10 4 0 13 10 14 29 2z m69 -3 c9 -9 12 -9 12 0 0 7 7 12 15 12 8 0 15
-4 15 -9 0 -17 -31 -21 -63 -7 -25 11 -27 15 -11 15 11 1 25 -4 32 -11z m606
1 c3 -3 -32 -6 -79 -6 -47 0 -85 2 -85 6 0 8 156 8 164 0z m60 3 c2 -4 -4 -8
-14 -8 -10 0 -16 4 -14 8 3 4 9 8 14 8 5 0 11 -4 14 -8z m266 -30 c0 -8 -2
-13 -5 -10 -4 3 -23 2 -45 -3 -22 -5 -49 -5 -62 0 l-23 9 28 7 c15 4 39 4 54
0 22 -5 25 -4 15 8 -10 12 -8 13 13 9 14 -2 25 -11 25 -20z m54 -10 c-4 -19 0
-34 11 -45 15 -16 15 -17 -3 -17 -11 0 -20 6 -19 13 1 43 -4 56 -20 51 -10 -3
-7 2 7 10 14 8 26 15 27 16 1 0 0 -13 -3 -28z m-934 7 c0 -13 -32 -19 -50 -9
-29 15 -40 12 -41 -12 0 -17 -2 -19 -7 -8 -4 8 -18 16 -31 18 -15 2 -21 0 -17
-7 4 -6 14 -11 23 -11 9 0 13 -3 10 -6 -4 -4 -20 -1 -36 6 -49 20 -19 35 70
35 44 0 79 -3 79 -6z m37 -11 c-3 -8 -6 -5 -6 6 -1 11 2 17 5 13 3 -3 4 -12 1
-19z m423 3 c0 -8 -6 -11 -16 -7 -9 3 -25 6 -35 6 -11 0 -18 4 -15 8 8 14 66
8 66 -7z m50 7 c0 -4 5 -8 11 -8 5 0 8 4 5 9 -7 11 101 7 111 -4 5 -4 -7 -5
-26 -1 -31 5 -32 5 -20 -12 11 -14 11 -15 -1 -4 -19 17 -55 15 -74 -4 -15 -14
-16 -14 -16 0 0 9 -7 16 -15 16 -8 0 -15 4 -15 8 0 4 9 8 20 8 11 0 20 -4 20
-8z m210 2 c0 -5 -10 -10 -22 -9 -22 0 -22 1 -3 9 11 5 21 9 23 9 1 1 2 -3 2
-9z m236 -17 c-10 -10 -19 5 -10 18 6 11 8 11 12 0 2 -7 1 -15 -2 -18z m-969
-25 c-3 -8 -6 -5 -6 6 -1 11 2 17 5 13 3 -3 4 -12 1 -19z m113 13 c17 -5 3 -7
-40 -7 -47 -1 -57 1 -35 7 38 9 45 9 75 0z m149 -7 c2 -2 -7 -4 -22 -4 -14 0
-29 5 -32 10 -6 10 42 4 54 -6z m111 4 c0 -4 -7 -8 -15 -8 -8 0 -15 -6 -15
-12 0 -9 -3 -10 -8 -2 -9 14 -52 25 -52 13 0 -5 7 -9 15 -9 34 0 12 -16 -25
-18 -22 -2 -40 1 -40 6 0 5 11 7 24 5 20 -4 24 -2 20 13 -4 17 1 19 45 19 28
1 51 -3 51 -7z m118 1 c-6 -4 -34 -7 -62 -7 -40 1 -45 2 -21 7 41 9 97 9 83 0z
m392 6 c0 -10 -71 -23 -92 -17 -18 6 -14 8 22 13 69 9 70 9 70 4z m-915 -15
c-27 -12 -43 -12 -25 0 8 5 22 9 30 9 10 0 8 -3 -5 -9z m218 3 c-7 -2 -19 -2
-25 0 -7 3 -2 5 12 5 14 0 19 -2 13 -5z m372 -3 c3 -6 -1 -7 -9 -4 -18 7 -21
14 -7 14 6 0 13 -4 16 -10z m189 2 c3 -5 -8 -6 -25 -4 -16 2 -29 6 -29 8 0 8
49 4 54 -4z m-664 -15 c0 -10 -13 -14 -44 -13 -30 1 -40 4 -30 9 9 5 26 6 40
3 14 -4 24 -2 24 4 0 5 2 10 5 10 3 0 5 -6 5 -13z m-195 -7 c-11 -5 -27 -9
-35 -9 -9 0 -8 4 5 9 11 5 27 9 35 9 9 0 8 -4 -5 -9z m55 -6 c0 -2 -7 -4 -15
-4 -8 0 -15 4 -15 10 0 5 7 7 15 4 8 -4 15 -8 15 -10z m195 6 c3 -5 2 -10 -4
-10 -5 0 -13 5 -16 10 -3 6 -2 10 4 10 5 0 13 -4 16 -10z m52 4 c-3 -3 -12 -4
-19 -1 -8 3 -5 6 6 6 11 1 17 -2 13 -5z m250 -16 c-3 -8 -6 -5 -6 6 -1 11 2
17 5 13 3 -3 4 -12 1 -19z m88 12 c3 -5 -1 -10 -10 -10 -9 0 -13 5 -10 10 3 6
8 10 10 10 2 0 7 -4 10 -10z m100 0 c3 -5 1 -10 -4 -10 -6 0 -11 5 -11 10 0 6
2 10 4 10 3 0 8 -4 11 -10z m125 0 c18 -5 7 -7 -35 -7 -42 0 -52 3 -35 8 31 9
39 9 70 -1z m137 -4 c4 -3 -17 -6 -45 -6 -28 0 -53 4 -56 8 -6 10 92 7 101 -2z
m-500 -2 c-3 -3 -12 -4 -19 -1 -8 3 -5 6 6 6 11 1 17 -2 13 -5z m180 -71 c-2
-16 -4 -3 -4 27 0 30 2 43 4 28 2 -16 2 -40 0 -55z m-594 50 c-13 -2 -33 -2
-45 0 -13 2 -3 4 22 4 25 0 35 -2 23 -4z m90 0 c-7 -2 -21 -2 -30 0 -10 3 -4
5 12 5 17 0 24 -2 18 -5z m47 0 c0 -5 -5 -15 -10 -23 -8 -12 -10 -11 -10 8 0
12 5 22 10 22 6 0 10 -3 10 -7z m100 -15 c-1 -22 -1 -22 -12 -3 -11 19 -11 19
-19 0 -7 -19 -8 -18 -8 3 -1 16 5 22 19 22 14 0 20 -7 20 -22z m43 15 c-7 -2
-19 -2 -25 0 -7 3 -2 5 12 5 14 0 19 -2 13 -5z m280 0 c-13 -2 -33 -2 -45 0
-13 2 -3 4 22 4 25 0 35 -2 23 -4z m334 1 c-3 -3 -12 -4 -19 -1 -8 3 -5 6 6 6
11 1 17 -2 13 -5z m-890 -20 c-3 -3 -12 -4 -19 -1 -8 3 -5 6 6 6 11 1 17 -2
13 -5z m103 -11 c0 -14 -9 -18 -38 -20 l-37 -1 35 10 35 11 -30 7 -30 8 33 1
c24 1 32 -3 32 -16z m234 2 c3 -8 1 -15 -4 -15 -6 0 -10 7 -10 15 0 8 2 15 4
15 2 0 6 -7 10 -15z m216 11 c0 -2 -16 -6 -35 -8 -19 -2 -35 0 -35 4 0 4 16 8
35 8 19 0 35 -2 35 -4z m147 -2 c-3 -3 -12 -4 -19 -1 -8 3 -5 6 6 6 11 1 17
-2 13 -5z m262 -16 c0 -13 -3 -17 -6 -10 -2 6 -12 12 -21 13 -14 0 -13 2 3 9
11 5 21 9 23 9 1 1 2 -9 1 -21z m-1061 -5 c18 -4 20 -8 10 -14 -7 -5 -20 -9
-28 -9 -13 0 -13 1 0 11 12 9 11 10 -8 6 -12 -3 -20 -1 -16 4 6 11 11 11 42 2z
m99 -9 c-3 -3 -12 -4 -19 -1 -8 3 -5 6 6 6 11 1 17 -2 13 -5z m248 -16 c6 -4
2 -8 -7 -8 -10 0 -18 7 -18 17 0 9 3 12 8 7 4 -5 12 -12 17 -16z m-305 2 c0
-5 -8 -10 -17 -10 -15 0 -16 2 -3 10 19 12 20 12 20 0z m595 0 c-3 -5 -14 -10
-23 -9 -14 0 -13 2 3 9 27 11 27 11 20 0z m342 -6 c-3 -3 -12 -4 -19 -1 -8 3
-5 6 6 6 11 1 17 -2 13 -5z m-942 -15 c11 0 2 -5 -19 -10 -21 -5 -41 -7 -44
-4 -3 3 3 5 14 6 18 0 18 1 -1 10 -17 8 -17 9 5 4 14 -2 34 -5 45 -6z m175 -4
c0 -2 -6 -5 -13 -8 -8 -3 -14 1 -14 8 0 7 6 11 14 8 7 -3 13 -6 13 -8z m170 2
l65 1 -55 -8 c-60 -8 -100 -3 -100 12 0 5 6 6 12 2 7 -5 42 -8 78 -7z m630 -1
c0 -9 -12 -13 -40 -12 -26 0 -34 3 -24 9 8 4 23 5 34 2 11 -4 20 -2 20 4 0 6
2 11 5 11 3 0 5 -6 5 -14z m-913 -2 c-3 -3 -12 -4 -19 -1 -8 3 -5 6 6 6 11 1
17 -2 13 -5z m66 -1 c-7 -2 -19 -2 -25 0 -7 3 -2 5 12 5 14 0 19 -2 13 -5z
m104 1 c-3 -3 -12 -4 -19 -1 -8 3 -5 6 6 6 11 1 17 -2 13 -5z m213 -4 c0 -5
-4 -10 -10 -10 -5 0 -10 5 -10 10 0 6 5 10 10 10 6 0 10 -4 10 -10z m184 -1
c-5 -8 -69 -7 -78 2 -3 3 14 5 39 5 24 1 42 -3 39 -7z m206 2 c0 -4 -11 -6
-25 -3 -14 2 -25 6 -25 8 0 2 11 4 25 4 14 0 25 -4 25 -9z m43 2 c-7 -2 -19
-2 -25 0 -7 3 -2 5 12 5 14 0 19 -2 13 -5z m167 -3 c-18 -12 -30 -13 -30 -2 0
4 10 9 22 9 18 2 20 0 8 -7z m-1027 -19 c10 -4 -9 -7 -45 -7 -50 -1 -56 1 -28
6 46 10 52 10 73 1z m80 -8 c-7 -2 -19 -2 -25 0 -7 3 -2 5 12 5 14 0 19 -2 13
-5z m190 0 c-7 -2 -19 -2 -25 0 -7 3 -2 5 12 5 14 0 19 -2 13 -5z m280 0 c-7
-2 -19 -2 -25 0 -7 3 -2 5 12 5 14 0 19 -2 13 -5z m50 0 c-7 -2 -19 -2 -25 0
-7 3 -2 5 12 5 14 0 19 -2 13 -5z m144 1 c-3 -3 -12 -4 -19 -1 -8 3 -5 6 6 6
11 1 17 -2 13 -5z m191 -1 c-16 -2 -40 -2 -55 0 -16 2 -3 4 27 4 30 0 43 -2
28 -4z m-922 -26 c3 -3 -15 -5 -40 -5 -25 0 -46 3 -46 7 0 9 77 7 86 -2z m148
2 c-5 -8 -111 -6 -119 3 -3 3 23 5 59 5 35 -1 63 -4 60 -8z m66 -5 c0 -2 -7
-4 -15 -4 -8 0 -15 4 -15 10 0 5 7 7 15 4 8 -4 15 -8 15 -10z m83 4 c-2 -5
-15 -8 -29 -8 -13 0 -24 3 -24 8 0 4 13 7 29 7 16 0 27 -3 24 -7z m122 1 c2
-3 -18 -6 -45 -6 -28 0 -52 2 -54 6 -5 8 91 8 99 0z m55 2 c0 -5 -9 -7 -20 -4
-11 3 -20 7 -20 9 0 2 9 4 20 4 11 0 20 -4 20 -9z m120 -1 c-18 -11 -60 -13
-60 -2 0 4 17 8 38 9 27 2 33 0 22 -7z m110 -6 c0 -2 -7 -4 -15 -4 -8 0 -15 4
-15 10 0 5 7 7 15 4 8 -4 15 -8 15 -10z m198 1 c3 -2 11 0 17 5 8 7 20 7 36 0
23 -10 23 -10 -4 -7 -15 3 -30 1 -32 -3 -6 -9 -53 -1 -60 11 -6 8 34 4 43 -6z
m-261 -1 c-3 -3 -12 -4 -19 -1 -8 3 -5 6 6 6 11 1 17 -2 13 -5z m-652 -25
c-29 -11 -32 -11 -32 4 0 9 9 12 26 9 23 -5 24 -6 6 -13z m322 -6 c-3 -3 -18
0 -34 6 l-28 11 28 -5 c18 -4 27 -1 28 7 0 10 2 10 6 0 3 -7 3 -16 0 -19z
m145 6 c-12 -5 -32 -4 -44 2 -21 8 -20 9 5 4 17 -3 26 -2 23 4 -4 5 3 7 16 3
l22 -5 -22 -8z m-385 5 c-3 -3 -12 -4 -19 -1 -8 3 -5 6 6 6 11 1 17 -2 13 -5z
m113 -4 c0 -5 -10 -10 -22 -9 -22 0 -22 1 -3 9 11 5 21 9 23 9 1 1 2 -3 2 -9z
m184 1 c3 -4 -6 -6 -19 -3 -14 2 -25 6 -25 8 0 8 39 4 44 -5z m422 -3 c-8 -4
-25 -4 -38 1 -20 8 -18 9 15 8 24 -1 32 -4 23 -9z m89 2 c-11 -5 -27 -9 -35
-9 -9 0 -8 4 5 9 11 5 27 9 35 9 9 0 8 -4 -5 -9z m100 0 c13 -5 14 -9 5 -9 -8
0 -24 4 -35 9 -13 5 -14 9 -5 9 8 0 24 -4 35 -9z m-659 -22 c24 1 44 -2 44 -6
0 -5 -27 -8 -60 -7 -33 0 -60 3 -60 6 0 11 13 18 22 12 6 -3 30 -5 54 -5z
m173 0 c47 1 93 -3 101 -8 11 -7 6 -8 -17 -4 -22 4 -33 3 -33 -5 0 -6 16 -11
35 -11 22 0 35 5 35 13 0 10 20 14 70 15 39 1 70 -2 70 -6 0 -5 -29 -8 -65 -7
-44 0 -65 -3 -65 -11 0 -7 -19 -13 -45 -16 -31 -2 -45 1 -45 9 0 14 -1 14 -78
18 -29 1 -58 8 -65 15 -9 10 -9 11 2 5 8 -4 53 -7 100 -7z m344 -1 l32 3 -30
-10 c-16 -5 -40 -7 -54 -3 -23 6 -24 7 -6 13 11 4 21 4 23 0 1 -3 17 -5 35 -3z
m107 0 c0 -9 -12 -13 -35 -13 -19 1 -35 5 -35 10 0 4 14 6 30 4 17 -3 30 -1
30 4 0 4 2 8 5 8 3 0 5 -6 5 -13z m-1040 -7 c0 -5 -2 -10 -4 -10 -3 0 -8 5
-11 10 -3 6 -1 10 4 10 6 0 11 -4 11 -10z m50 2 c0 -4 -9 -8 -20 -8 -11 0 -20
4 -20 8 0 4 9 8 20 8 11 0 20 -4 20 -8z m118 1 c-10 -3 -18 -13 -18 -22 0 -15
-6 -17 -27 -12 -28 5 -28 5 -3 9 l24 4 -24 13 c-22 12 -21 13 21 12 24 0 36
-2 27 -4z m72 3 c0 -2 -7 -6 -15 -10 -8 -3 -15 -1 -15 4 0 6 7 10 15 10 8 0
15 -2 15 -4z m90 -3 c0 -5 -14 -8 -30 -9 -17 -1 -30 3 -30 7 0 5 14 9 30 9 17
0 30 -3 30 -7z m765 -3 c7 -12 -2 -12 -30 0 -19 8 -19 9 2 9 12 1 25 -3 28 -9z
m-790 -20 c3 -5 1 -10 -4 -10 -6 0 -11 5 -11 10 0 6 2 10 4 10 3 0 8 -4 11
-10z m255 -7 c0 -3 -11 -3 -25 -1 -18 4 -25 1 -25 -10 0 -8 -3 -13 -6 -9 -15
15 5 34 30 30 14 -3 26 -8 26 -10z m-497 0 c-7 -2 -19 -2 -25 0 -7 3 -2 5 12
5 14 0 19 -2 13 -5z m210 0 c-7 -2 -19 -2 -25 0 -7 3 -2 5 12 5 14 0 19 -2 13
-5z m84 -25 c-3 -7 -5 -2 -5 12 0 14 2 19 5 13 2 -7 2 -19 0 -25z m256 25 c-7
-2 -19 -2 -25 0 -7 3 -2 5 12 5 14 0 19 -2 13 -5z m174 1 c-3 -3 -12 -4 -19
-1 -8 3 -5 6 6 6 11 1 17 -2 13 -5z m106 -1 c-7 -2 -21 -2 -30 0 -10 3 -4 5
12 5 17 0 24 -2 18 -5z m50 0 c-7 -2 -19 -2 -25 0 -7 3 -2 5 12 5 14 0 19 -2
13 -5z m70 0 c-7 -2 -21 -2 -30 0 -10 3 -4 5 12 5 17 0 24 -2 18 -5z m-1023
-17 c0 -2 -7 -6 -15 -10 -8 -3 -15 -1 -15 4 0 6 7 10 15 10 8 0 15 -2 15 -4z
m283 -3 c-7 -2 -19 -2 -25 0 -7 3 -2 5 12 5 14 0 19 -2 13 -5z m202 -3 c3 -5
-1 -10 -10 -10 -9 0 -13 5 -10 10 3 6 8 10 10 10 2 0 7 -4 10 -10z m85 0 c0
-5 -5 -10 -11 -10 -5 0 -7 5 -4 10 3 6 8 10 11 10 2 0 4 -4 4 -10z m60 0 c0
-5 -5 -10 -11 -10 -5 0 -7 5 -4 10 3 6 8 10 11 10 2 0 4 -4 4 -10z m-583 -6
c-3 -3 -12 -4 -19 -1 -8 3 -5 6 6 6 11 1 17 -2 13 -5z m743 2 c0 -3 -4 -8 -10
-11 -5 -3 -10 -1 -10 4 0 6 5 11 10 11 6 0 10 -2 10 -4z m160 0 c0 -3 -4 -8
-10 -11 -5 -3 -10 -1 -10 4 0 6 5 11 10 11 6 0 10 -2 10 -4z m135 -3 c-16 -3
-33 -9 -36 -15 -4 -5 -9 -3 -12 6 -5 13 1 16 36 15 34 -2 36 -3 12 -6z m-741
-29 c3 -8 2 -12 -4 -9 -6 3 -10 10 -10 16 0 14 7 11 14 -7z m173 -31 c-3 -10
-5 -4 -5 12 0 17 2 24 5 18 2 -7 2 -21 0 -30z m-450 -3 c8 0 13 -6 11 -12 -5
-14 -58 -20 -58 -7 0 5 5 9 10 9 6 0 11 10 11 23 1 16 2 18 6 5 2 -10 11 -18
20 -18z m190 8 c-3 -8 -6 -5 -6 6 -1 11 2 17 5 13 3 -3 4 -12 1 -19z m373 12
c0 -5 -5 -10 -11 -10 -5 0 -7 5 -4 10 3 6 8 10 11 10 2 0 4 -4 4 -10z m50 0
c0 -5 -5 -10 -11 -10 -5 0 -7 5 -4 10 3 6 8 10 11 10 2 0 4 -4 4 -10z m160 6
c0 -3 -4 -8 -10 -11 -5 -3 -10 -1 -10 4 0 6 5 11 10 11 6 0 10 -2 10 -4z m60
-6 c-8 -5 -22 -9 -30 -9 -10 0 -8 3 5 9 27 12 43 12 25 0z m60 0 c0 -5 -8 -10
-17 -10 -15 0 -16 2 -3 10 19 12 20 12 20 0z m76 -2 c-10 -6 -27 -6 -44 0 -24
8 -23 9 17 9 32 0 39 -2 27 -9z m-50 -16 c-2 -4 -1 -14 5 -22 7 -12 9 -12 9 3
0 15 2 16 14 5 12 -11 11 -14 -5 -20 -11 -4 -34 -4 -52 -1 l-32 7 30 7 30 7
-30 2 -30 2 30 8 c17 4 31 8 33 9 2 0 1 -3 -2 -7z m-985 -9 c-11 -5 -11 -7 0
-14 10 -6 7 -8 -9 -6 -34 2 -22 25 13 25 6 0 4 -2 -4 -5z m476 1 c-3 -3 -12
-4 -19 -1 -8 3 -5 6 6 6 11 1 17 -2 13 -5z m84 -1 c-11 -5 -11 -7 0 -14 9 -6
0 -8 -26 -7 -23 0 -30 3 -17 5 12 2 22 9 22 14 0 5 8 9 18 8 12 0 13 -2 3 -6z
m179 -4 c-12 -8 -8 -9 15 -6 17 3 41 8 55 12 17 5 21 4 11 -3 -11 -8 -11 -11
0 -16 8 -3 2 -4 -13 -1 -16 3 -28 2 -28 -2 0 -5 -27 -6 -60 -5 -33 2 -60 8
-60 14 0 6 12 8 30 5 17 -4 30 -2 30 3 0 6 8 10 18 10 15 0 15 -2 2 -11z m167
-13 c0 -8 -8 -11 -21 -8 -19 5 -19 6 0 13 10 4 19 8 20 8 0 1 1 -5 1 -13z
m-694 -3 c-13 -2 -33 -2 -45 0 -13 2 -3 4 22 4 25 0 35 -2 23 -4z m160 0 c-36
-5 -44 -19 -15 -26 13 -4 11 -5 -5 -6 -15 -1 -23 5 -23 15 0 10 -6 14 -15 10
-8 -3 -15 -1 -15 4 0 6 24 9 53 8 35 -1 42 -2 20 -5z m90 0 c-7 -2 -19 -2 -25
0 -7 3 -2 5 12 5 14 0 19 -2 13 -5z m160 0 c-7 -2 -21 -2 -30 0 -10 3 -4 5 12
5 17 0 24 -2 18 -5z m-655 -38 c-3 -30 -11 -23 -13 9 0 14 3 22 7 20 4 -3 7
-16 6 -29z m317 6 c-6 -5 -25 10 -25 20 0 5 6 4 14 -3 8 -7 12 -15 11 -17z
m-290 9 c3 -5 1 -10 -4 -10 -6 0 -11 5 -11 10 0 6 2 10 4 10 3 0 8 -4 11 -10z
m76 -8 c-7 -2 -18 1 -23 6 -8 8 -4 9 13 5 13 -4 18 -8 10 -11z m415 0 c-10 -2
-22 0 -28 6 -6 6 0 7 19 4 21 -5 23 -7 9 -10z m37 3 c-3 -9 -8 -14 -10 -11 -3
3 -2 9 2 15 9 16 15 13 8 -4z m206 -1 c2 -2 -10 -4 -27 -4 -17 0 -34 4 -37 10
-5 9 53 3 64 -6z m296 6 c-3 -5 -14 -10 -23 -9 -14 0 -13 2 3 9 27 11 27 11
20 0z m-977 -24 c15 3 33 7 40 10 7 2 11 0 7 -5 -3 -5 -1 -11 5 -13 5 -1 -13
-4 -40 -5 -45 -1 -50 1 -49 20 1 17 2 18 6 4 3 -13 11 -16 31 -11z m99 18 c-3
-3 -12 -4 -19 -1 -8 3 -5 6 6 6 11 1 17 -2 13 -5z m280 0 c-3 -3 -12 -4 -19
-1 -8 3 -5 6 6 6 11 1 17 -2 13 -5z m138 -4 c-13 -6 -15 -9 -5 -9 13 -1 13 -2
0 -11 -8 -5 -24 -9 -35 -9 -16 1 -16 2 5 9 14 4 18 9 10 9 -13 1 -13 2 0 11 8
5 22 9 30 9 10 0 8 -3 -5 -9z m82 4 c-3 -3 -12 -4 -19 -1 -8 3 -5 6 6 6 11 1
17 -2 13 -5z m148 -4 c3 -6 -1 -7 -9 -4 -18 7 -21 14 -7 14 6 0 13 -4 16 -10z
m132 4 c-3 -3 -12 -4 -19 -1 -8 3 -5 6 6 6 11 1 17 -2 13 -5z m-722 -24 c-11
-5 -31 -8 -45 -8 -23 0 -22 1 5 8 42 11 65 11 40 0z m70 0 c-11 -5 -27 -9 -35
-9 -9 0 -8 4 5 9 11 5 27 9 35 9 9 0 8 -4 -5 -9z m59 -2 c-3 -4 -12 -8 -20 -8
-8 0 -14 4 -14 8 0 4 9 8 19 8 11 0 17 -4 15 -8z m161 4 c-2 -3 -31 -6 -62 -8
-34 -1 -50 1 -38 5 21 8 108 11 100 3z m105 -2 c0 -5 -5 -10 -11 -10 -5 0 -7
5 -4 10 3 6 8 10 11 10 2 0 4 -4 4 -10z m37 3 c-12 -3 -17 -11 -14 -22 2 -9
-3 -23 -11 -31 -14 -13 -15 -12 -9 4 4 10 7 26 7 37 0 13 7 19 23 18 18 -1 19
-2 4 -6z m93 -3 c0 -13 -11 -13 -30 0 -12 8 -11 10 8 10 12 0 22 -4 22 -10z
m105 0 c3 -5 1 -10 -4 -10 -6 0 -11 5 -11 10 0 6 2 10 4 10 3 0 8 -4 11 -10z
m125 -1 c0 -3 -21 -7 -47 -7 -35 0 -43 2 -28 8 23 10 75 9 75 -1z m100 1 c0
-5 -8 -10 -17 -10 -15 0 -16 2 -3 10 19 12 20 12 20 0z m24 -6 c3 -8 2 -12 -4
-9 -6 3 -10 10 -10 16 0 14 7 11 14 -7z m-877 -26 c-3 -8 -6 -5 -6 6 -1 11 2
17 5 13 3 -3 4 -12 1 -19z m-235 -7 c-2 -10 6 -12 27 -9 17 2 28 1 25 -4 -3
-4 -16 -8 -30 -8 -13 0 -23 -3 -22 -7 2 -14 -14 -43 -24 -43 -6 0 -4 7 3 16
20 24 21 47 1 40 -14 -5 -14 -4 1 8 18 14 18 14 0 20 -15 4 -15 4 2 2 11 -1
19 -8 17 -15z m78 3 c0 -13 7 -15 33 -10 23 4 28 3 17 -4 -21 -14 -48 -12 -57
4 -4 7 -15 16 -23 19 -10 4 -7 6 8 6 14 1 22 -5 22 -15z m67 10 c-3 -3 -12 -4
-19 -1 -8 3 -5 6 6 6 11 1 17 -2 13 -5z m61 -1 c-10 -2 -26 -2 -35 0 -10 3 -2
5 17 5 19 0 27 -2 18 -5z m82 3 c0 -2 -9 -6 -20 -9 -11 -3 -20 -1 -20 4 0 5 9
9 20 9 11 0 20 -2 20 -4z m147 -2 c-3 -3 -12 -4 -19 -1 -8 3 -5 6 6 6 11 1 17
-2 13 -5z m60 0 c-3 -3 -12 -4 -19 -1 -8 3 -5 6 6 6 11 1 17 -2 13 -5z m71 -1
c-30 -8 -20 -26 11 -21 17 2 28 1 25 -4 -3 -4 -18 -8 -35 -8 -22 0 -29 5 -29
20 0 14 6 20 23 19 16 -1 18 -2 5 -6z m315 0 c-7 -2 -19 -2 -25 0 -7 3 -2 5
12 5 14 0 19 -2 13 -5z m75 0 c-10 -2 -18 -11 -18 -19 0 -8 -9 -14 -22 -13
-19 1 -19 2 -5 6 11 3 16 11 13 19 -4 10 2 14 22 13 17 -1 20 -3 10 -6z m136
0 c-5 -5 -12 -12 -16 -18 -4 -6 -8 -2 -8 8 0 9 7 17 17 17 9 0 12 -3 7 -7z
m-884 -23 c0 -5 -12 -11 -27 -11 -17 -1 -21 -3 -10 -6 31 -8 18 -25 -15 -19
-25 5 -28 4 -13 -3 32 -15 55 -12 56 7 1 15 2 15 6 -1 4 -14 11 -18 29 -14 14
2 27 0 30 -4 3 -5 -12 -9 -33 -9 -21 0 -47 -7 -57 -15 -11 -8 -29 -14 -40 -14
-17 1 -18 2 -3 6 29 8 21 33 -10 29 -16 -2 -22 -1 -15 1 6 2 12 9 12 14 0 6
-4 7 -10 4 -5 -3 -10 -1 -10 4 0 6 11 11 25 11 14 0 25 4 25 9 0 5 12 12 28
14 15 2 28 5 30 6 1 0 2 -3 2 -9z m280 0 c13 -8 13 -10 -2 -10 -9 0 -20 5 -23
10 -8 13 5 13 25 0z m270 0 c0 -5 -2 -10 -4 -10 -3 0 -8 5 -11 10 -3 6 -1 10
4 10 6 0 11 -4 11 -10z m298 -5 c4 -4 -6 -5 -21 -1 -16 4 -26 3 -23 -2 3 -5
-8 -6 -25 -4 -16 2 -31 7 -33 11 -6 9 93 6 102 -4z m-665 -2 c-7 -2 -21 -2
-30 0 -10 3 -4 5 12 5 17 0 24 -2 18 -5z m460 0 c-7 -2 -19 -2 -25 0 -7 3 -2
5 12 5 14 0 19 -2 13 -5z m222 -13 c-3 -5 -12 -10 -18 -10 -7 0 -6 4 3 10 19
12 23 12 15 0z m-705 -8 c0 -4 -9 -8 -20 -8 -11 0 -20 4 -20 8 0 4 9 8 20 8
11 0 20 -4 20 -8z m121 -1 c-11 -7 -6 -12 20 -19 19 -6 26 -11 17 -11 -9 -1
-25 -4 -35 -7 -14 -4 -15 -4 -4 4 11 8 9 11 -8 17 -24 7 -19 25 7 25 14 0 15
-2 3 -9z m89 2 c0 -5 -17 -9 -38 -10 -28 -1 -32 1 -17 7 26 11 55 12 55 3z
m75 -3 c11 -5 15 -9 8 -9 -6 -1 -20 -4 -30 -7 -15 -5 -16 -4 -3 6 12 9 9 10
-15 6 -22 -5 -26 -4 -15 4 18 12 28 12 55 0z m125 -5 c0 -17 21 -20 36 -5 7 7
11 7 11 -3 0 -7 -13 -14 -29 -15 -21 -2 -28 2 -29 15 0 10 -3 13 -5 7 -3 -7
-15 -9 -26 -6 -21 5 -21 6 -2 13 30 12 44 10 44 -6z m90 5 c8 -5 11 -10 5 -10
-5 0 -17 5 -25 10 -8 5 -10 10 -5 10 6 0 17 -5 25 -10z m85 0 c-3 -5 -12 -10
-18 -10 -7 0 -6 4 3 10 19 12 23 12 15 0z m-895 -15 c0 -11 -10 -15 -32 -14
-31 2 -31 2 -5 6 15 2 27 9 27 14 0 5 2 9 5 9 3 0 5 -7 5 -15z m17 -7 c-3 -8
-6 -5 -6 6 -1 11 2 17 5 13 3 -3 4 -12 1 -19z m798 2 c19 -8 19 -9 -2 -9 -12
-1 -25 4 -28 9 -7 12 2 12 30 0z m200 0 c4 -6 -6 -10 -22 -9 -25 0 -26 1 -8 9
11 5 21 9 22 9 1 1 5 -3 8 -9z m-768 -22 c-3 -8 -6 -5 -6 6 -1 11 2 17 5 13 3
-3 4 -12 1 -19z m86 15 c-7 -2 -19 -2 -25 0 -7 3 -2 5 12 5 14 0 19 -2 13 -5z
m70 0 c-7 -2 -19 -2 -25 0 -7 3 -2 5 12 5 14 0 19 -2 13 -5z m282 -3 c3 -6 -1
-7 -9 -4 -18 7 -21 14 -7 14 6 0 13 -4 16 -10z m212 4 c-3 -3 -12 -4 -19 -1
-8 3 -5 6 6 6 11 1 17 -2 13 -5z m-877 -30 c0 -2 -9 -4 -20 -4 -11 0 -20 4
-20 9 0 5 9 7 20 4 11 -3 20 -7 20 -9z m580 6 c0 -5 -5 -10 -11 -10 -5 0 -7 5
-4 10 3 6 8 10 11 10 2 0 4 -4 4 -10z m428 -22 c-16 -12 -19 -18 -8 -18 12 0
13 -2 1 -9 -11 -7 -11 -9 0 -13 9 -3 8 -6 -5 -11 -10 -4 -15 -3 -11 3 3 6 -5
10 -19 10 -14 0 -28 5 -32 11 -4 8 4 9 27 4 25 -4 30 -3 19 4 -10 7 -11 11 -2
11 6 0 11 3 11 8 -3 16 2 21 21 19 20 -1 20 -2 -2 -19z m-871 -4 c-3 -3 -12
-4 -19 -1 -8 3 -5 6 6 6 11 1 17 -2 13 -5z m136 -1 c-13 -2 -35 -2 -50 0 -16
2 -5 4 22 4 28 0 40 -2 28 -4z m134 1 c-3 -3 -12 -4 -19 -1 -8 3 -5 6 6 6 11
1 17 -2 13 -5z m546 -1 c-7 -2 -19 -2 -25 0 -7 3 -2 5 12 5 14 0 19 -2 13 -5z
m-1013 -14 c-11 -8 -7 -9 16 -4 16 3 41 2 54 -3 19 -7 12 -9 -30 -7 -81 3 -89
5 -65 15 28 12 43 12 25 -1z m208 -7 c8 -5 -1 -8 -22 -8 -19 1 -32 4 -29 9 6
9 35 9 51 -1z m55 1 c-7 -2 -19 -2 -25 0 -7 3 -2 5 12 5 14 0 19 -2 13 -5z
m98 -11 c-7 -2 -18 1 -23 6 -8 8 -4 9 13 5 13 -4 18 -8 10 -11z m59 8 c18 -12
2 -12 -25 0 -13 6 -15 9 -5 9 8 0 22 -4 30 -9z m159 -17 c0 -16 -3 -23 -5 -17
-3 7 -15 10 -27 8 -22 -5 -22 -5 1 5 12 6 22 15 22 21 0 5 2 10 5 10 3 0 5
-12 4 -27z m51 7 c0 -14 -6 -20 -22 -19 -17 1 -19 2 -5 6 9 2 17 11 17 19 0 8
2 14 5 14 3 0 5 -9 5 -20z m77 -2 c-3 -8 -6 -5 -6 6 -1 11 2 17 5 13 3 -3 4
-12 1 -19z m83 12 c0 -5 -4 -10 -10 -10 -5 0 -10 5 -10 10 0 6 5 10 10 10 6 0
10 -4 10 -10z m150 0 c0 -5 -13 -10 -30 -10 -16 0 -30 5 -30 10 0 6 14 10 30
10 17 0 30 -4 30 -10z m-603 -26 c-3 -3 -12 -4 -19 -1 -8 3 -5 6 6 6 11 1 17
-2 13 -5z m430 0 c-3 -3 -12 -4 -19 -1 -8 3 -5 6 6 6 11 1 17 -2 13 -5z m223
-4 c0 -5 -7 -7 -15 -4 -8 4 -15 8 -15 10 0 2 7 4 15 4 8 0 15 -4 15 -10z m40
6 c0 -3 -4 -8 -10 -11 -5 -3 -10 -1 -10 4 0 6 5 11 10 11 6 0 10 -2 10 -4z
m-835 -26 c-3 -5 -18 -9 -33 -9 l-27 1 30 8 c17 4 31 8 33 9 2 0 0 -3 -3 -9z
m105 -1 c21 -7 20 -8 -11 -5 -26 3 -36 0 -36 -10 0 -8 5 -14 10 -14 6 0 8 -2
5 -5 -3 -3 -13 -2 -22 1 -14 5 -15 9 -4 15 9 6 6 9 -12 10 l-25 1 25 8 c32 10
39 10 70 -1z m230 -5 c17 -4 21 -3 12 4 -10 6 4 9 42 7 31 -1 59 -5 63 -8 7
-8 -1 -9 -72 -9 -91 -1 -115 2 -115 13 0 7 9 9 23 5 12 -3 33 -9 47 -12z m390
0 c0 -2 -9 -4 -20 -4 -11 0 -20 4 -20 9 0 5 9 7 20 4 11 -3 20 -7 20 -9z
m-547 -1 c-7 -2 -19 -2 -25 0 -7 3 -2 5 12 5 14 0 19 -2 13 -5z m384 1 c-3 -3
-12 -4 -19 -1 -8 3 -5 6 6 6 11 1 17 -2 13 -5z m-766 -44 c6 0 8 4 4 9 -3 5
-1 12 5 16 5 3 10 -3 10 -14 0 -14 -6 -21 -20 -21 -15 0 -20 6 -19 28 2 23 2
24 6 5 2 -13 9 -23 14 -23z m406 18 c-3 -8 -6 -5 -6 6 -1 11 2 17 5 13 3 -3 4
-12 1 -19z m-207 4 c0 -5 -13 -7 -30 -4 -16 2 -30 6 -30 8 0 2 14 4 30 4 17 0
30 -4 30 -8z m177 2 c-3 -3 -12 -4 -19 -1 -8 3 -5 6 6 6 11 1 17 -2 13 -5z
m220 0 c-3 -3 -12 -4 -19 -1 -8 3 -5 6 6 6 11 1 17 -2 13 -5z m70 0 c-3 -3
-12 -4 -19 -1 -8 3 -5 6 6 6 11 1 17 -2 13 -5z m153 -4 c0 -5 -2 -10 -4 -10
-3 0 -8 5 -11 10 -3 6 -1 10 4 10 6 0 11 -4 11 -10z m-852 -25 c-3 -3 -9 2
-12 12 -6 14 -5 15 5 6 7 -7 10 -15 7 -18z m577 17 l-20 -5 20 -8 c15 -6 13
-7 -12 -6 -18 1 -33 5 -33 9 0 7 27 16 50 16 8 0 6 -3 -5 -6z m-487 -32 c15 0
15 -2 2 -10 -8 -5 -24 -9 -35 -9 -15 1 -16 2 -4 6 9 2 16 12 14 21 -1 9 0 11
2 5 3 -7 12 -13 21 -13z m12 20 c0 -5 -4 -10 -10 -10 -5 0 -10 5 -10 10 0 6 5
10 10 10 6 0 10 -4 10 -10z m80 -2 c0 -11 -32 -10 -50 2 -11 7 -6 9 17 7 18
-1 33 -5 33 -9z m121 -6 c-7 -2 -18 1 -23 6 -8 8 -4 9 13 5 13 -4 18 -8 10
-11z m46 12 c-3 -3 -12 -4 -19 -1 -8 3 -5 6 6 6 11 1 17 -2 13 -5z m423 -4
c12 -7 10 -9 -8 -7 -12 0 -22 5 -22 9 0 11 12 10 30 -2z m-533 -6 c-3 -3 -12
-4 -19 -1 -8 3 -5 6 6 6 11 1 17 -2 13 -5z m216 -1 c-7 -2 -19 -2 -25 0 -7 3
-2 5 12 5 14 0 19 -2 13 -5z m474 1 c-3 -3 -12 -4 -19 -1 -8 3 -5 6 6 6 11 1
17 -2 13 -5z m80 0 c-3 -3 -12 -4 -19 -1 -8 3 -5 6 6 6 11 1 17 -2 13 -5z
m-982 -35 c-4 -5 5 -9 19 -9 14 0 26 -5 26 -11 0 -7 -9 -9 -22 -5 -13 3 -26 6
-30 6 -4 0 -6 9 -5 19 0 11 5 17 9 15 5 -3 6 -10 3 -15z m235 11 c13 -9 13
-10 0 -10 -8 0 -22 5 -30 10 -13 9 -13 10 0 10 8 0 22 -5 30 -10z m57 4 c-3
-3 -12 -4 -19 -1 -8 3 -5 6 6 6 11 1 17 -2 13 -5z m63 2 c0 -2 -7 -6 -15 -10
-8 -3 -15 -1 -15 4 0 6 7 10 15 10 8 0 15 -2 15 -4z m290 -6 c-14 -4 -34 -8
-45 -8 l-20 -1 20 9 c11 5 31 8 45 8 l25 0 -25 -8z m60 6 c0 -3 -4 -8 -10 -11
-5 -3 -10 -1 -10 4 0 6 5 11 10 11 6 0 10 -2 10 -4z m286 -8 c2 -3 -15 -5 -40
-4 -24 0 -47 3 -50 7 -3 3 15 4 39 4 25 -1 48 -4 51 -7z m59 2 c13 -6 15 -9 5
-9 -8 0 -22 4 -30 9 -18 12 -2 12 25 0z m-15 -46 c0 -25 -12 -29 -45 -13 -17
8 -15 8 8 4 15 -3 27 -1 27 5 0 5 -11 10 -24 10 -14 0 -28 5 -32 11 -4 8 3 9
26 4 25 -5 31 -4 25 5 -5 9 -4 11 3 6 7 -4 12 -18 12 -32z m-952 8 c2 -7 -1
-12 -8 -12 -6 0 -9 4 -6 9 4 5 1 12 -4 14 -6 3 -5 4 2 3 6 -1 14 -8 16 -14z
m252 6 c0 -4 -31 -6 -69 -5 -39 2 -68 0 -65 -4 2 -4 -6 -5 -18 -2 -19 4 -20 3
-8 -6 19 -14 0 -14 -34 -1 -51 19 -24 27 84 27 61 -1 110 -4 110 -9z m143 -1
c-8 -5 -26 -7 -39 -4 -18 3 -24 1 -20 -8 3 -8 -1 -16 -9 -19 -9 -3 -12 0 -8
10 3 9 -1 14 -13 14 -11 0 -25 4 -32 9 -8 5 16 8 61 7 47 -1 70 -4 60 -9z
m117 2 c0 -3 -13 -6 -30 -5 -16 1 -30 4 -30 9 0 4 14 6 30 5 17 -1 30 -5 30
-9z m60 7 c0 -3 -4 -8 -10 -11 -5 -3 -10 -1 -10 4 0 6 5 11 10 11 6 0 10 -2
10 -4z m65 -6 c8 -13 -5 -13 -25 0 -13 8 -13 10 2 10 9 0 20 -4 23 -10z m133
-5 c10 -10 -63 -5 -78 5 -11 7 -2 9 29 5 25 -3 47 -7 49 -10z m69 -1 c-3 -3
-12 -4 -19 -1 -8 3 -5 6 6 6 11 1 17 -2 13 -5z m-649 -20 c-10 -9 -58 -12 -52
-3 3 5 17 9 31 9 15 0 24 -3 21 -6z m42 -6 c0 -4 -4 -8 -9 -8 -6 0 -12 4 -15
8 -3 5 1 9 9 9 8 0 15 -4 15 -9z m174 -4 c3 -8 20 -13 41 -12 19 1 38 -2 42
-5 3 -4 -1 -7 -9 -7 -9 0 -18 -5 -20 -12 -3 -9 -15 -8 -46 4 -27 10 -42 12
-42 6 0 -6 -3 -8 -6 -5 -4 4 -2 13 4 20 7 8 10 16 7 19 -3 2 2 5 10 5 8 0 16
-6 19 -13z m412 4 c-10 -6 -27 -6 -44 0 -24 8 -23 9 17 9 32 0 39 -2 27 -9z
m144 -26 c3 -3 -12 -2 -33 1 -20 3 -35 2 -33 -2 3 -5 -7 -6 -22 -3 l-27 6 25
6 c25 7 80 2 90 -8z m-382 -3 c-10 -7 -10 -9 2 -9 13 0 13 -2 1 -9 -12 -8 -12
-10 0 -13 8 -3 1 -3 -16 0 -39 6 -45 10 -39 25 2 7 18 12 35 13 20 1 26 -2 17
-7z m110 4 c-10 -2 -26 -2 -35 0 -10 3 -2 5 17 5 19 0 27 -2 18 -5z m49 1 c-3
-3 -12 -4 -19 -1 -8 3 -5 6 6 6 11 1 17 -2 13 -5z m82 2 c-2 -2 -20 -6 -39
-10 -25 -4 -31 -3 -20 4 14 9 69 15 59 6z m-175 -48 c-3 -4 -13 -8 -22 -7 -11
0 -12 3 -4 6 6 2 12 12 12 21 0 14 2 15 9 2 6 -8 7 -18 5 -22z m86 22 c-8 -5
-24 -9 -35 -9 l-20 0 20 9 c11 5 27 9 35 9 13 1 13 0 0 -9z m90 1 c0 -5 -9 -7
-20 -4 -11 3 -20 7 -20 9 0 2 9 4 20 4 11 0 20 -4 20 -9z m125 -1 c-3 -5 -13
-10 -21 -10 -8 0 -12 5 -9 10 3 6 13 10 21 10 8 0 12 -4 9 -10z m-248 -26 c-3
-3 -12 -4 -19 -1 -8 3 -5 6 6 6 11 1 17 -2 13 -5z m161 -7 c6 -5 12 -14 12
-20 0 -6 -6 -3 -13 8 -10 12 -19 15 -28 9 -23 -14 -42 -14 -30 0 13 15 41 17
59 3z m115 -4 c-7 -2 -21 -2 -30 0 -10 3 -4 5 12 5 17 0 24 -2 18 -5z m-53
-13 c0 -5 -4 -10 -10 -10 -5 0 -10 5 -10 10 0 6 5 10 10 10 6 0 10 -4 10 -10z"/>
<path d="M2110 3309 c0 -5 5 -7 10 -4 6 3 10 8 10 11 0 2 -4 4 -10 4 -5 0 -10
-5 -10 -11z"/>
<path d="M2265 3321 c-31 -7 -24 -21 8 -16 9 2 17 0 17 -4 0 -4 16 -5 35 -3
20 2 35 10 35 17 0 10 -7 11 -30 5 -19 -5 -28 -5 -25 1 7 10 5 10 -40 0z"/>
<path d="M2160 3310 c0 -5 9 -10 19 -10 11 0 23 5 26 10 4 6 -5 10 -19 10 -14
0 -26 -4 -26 -10z"/>
<path d="M2778 3293 c7 -3 16 -2 19 1 4 3 -2 6 -13 5 -11 0 -14 -3 -6 -6z"/>
<path d="M2260 2426 c0 -2 7 -7 16 -10 8 -3 12 -2 9 4 -6 10 -25 14 -25 6z"/>
<path d="M2418 2393 c6 -2 18 -2 25 0 6 3 1 5 -13 5 -14 0 -19 -2 -12 -5z"/>
<path d="M1535 1892 c-11 -7 -155 -245 -155 -255 0 -3 -20 -38 -44 -79 -114
-188 -186 -320 -180 -330 4 -6 2 -8 -4 -5 -15 10 -65 -79 -57 -103 4 -11 18
-23 33 -26 15 -3 33 -8 41 -10 8 -3 30 -7 50 -10 20 -3 90 -16 156 -29 66 -13
199 -38 295 -55 157 -28 276 -50 425 -80 62 -12 123 -15 150 -7 24 8 34 25
135 222 42 83 124 244 183 359 85 165 105 212 97 226 -11 21 -34 26 -270 65
-85 14 -180 30 -210 35 -30 5 -86 14 -125 20 -38 6 -153 24 -254 40 -186 30
-248 36 -266 22z m199 -38 c3 -8 2 -12 -4 -9 -6 3 -10 10 -10 16 0 14 7 11 14
-7z m-74 -4 c0 -5 -2 -10 -4 -10 -3 0 -8 5 -11 10 -3 6 -1 10 4 10 6 0 11 -4
11 -10z m157 -6 c-3 -3 -12 -4 -19 -1 -8 3 -5 6 6 6 11 1 17 -2 13 -5z m-60
-26 c-3 -8 -6 -5 -6 6 -1 11 2 17 5 13 3 -3 4 -12 1 -19z m163 5 c0 -14 -2
-15 -9 -4 -5 8 -14 10 -21 6 -9 -5 -11 -4 -6 3 11 18 36 14 36 -5z m-393 -35
c-3 -8 -6 -5 -6 6 -1 11 2 17 5 13 3 -3 4 -12 1 -19z m183 7 c0 -8 -2 -15 -4
-15 -2 0 -6 7 -10 15 -3 8 -1 15 4 15 6 0 10 -7 10 -15z m260 -1 c0 -8 -5 -12
-10 -9 -6 4 -8 11 -5 16 9 14 15 11 15 -7z m154 1 c3 -8 1 -15 -4 -15 -6 0
-10 7 -10 15 0 8 2 15 4 15 2 0 6 -7 10 -15z m-494 -5 c0 -5 -2 -10 -4 -10 -3
0 -8 5 -11 10 -3 6 -1 10 4 10 6 0 11 -4 11 -10z m135 0 c3 -5 1 -10 -4 -10
-6 0 -11 5 -11 10 0 6 2 10 4 10 3 0 8 -4 11 -10z m-88 -6 c-3 -3 -12 -4 -19
-1 -8 3 -5 6 6 6 11 1 17 -2 13 -5z m390 0 c-3 -3 -12 -4 -19 -1 -8 3 -5 6 6
6 11 1 17 -2 13 -5z m225 -22 c7 -7 -1 -8 -26 -2 -20 4 -36 5 -36 1 0 -3 -15
-6 -33 -6 -19 0 -34 5 -34 10 0 13 116 10 129 -3z m-775 2 c-3 -3 -12 -4 -19
-1 -8 3 -5 6 6 6 11 1 17 -2 13 -5z m212 1 c-3 -2 -35 -6 -72 -8 -37 -2 -61 0
-54 5 13 8 134 11 126 3z m54 -2 c-7 -2 -19 -2 -25 0 -7 3 -2 5 12 5 14 0 19
-2 13 -5z m80 0 c-7 -2 -19 -2 -25 0 -7 3 -2 5 12 5 14 0 19 -2 13 -5z m81 -1
c2 -4 1 -14 -5 -22 -7 -12 -9 -12 -9 4 0 14 -6 17 -25 14 -13 -3 -22 -1 -19 3
7 11 51 12 58 1z m441 -12 c5 -8 11 -8 19 -1 9 8 13 7 13 -2 0 -7 -11 -13 -23
-13 -12 0 -21 3 -18 7 2 4 -2 10 -8 12 -9 4 -10 6 -1 6 6 1 15 -4 18 -9z
m-902 -22 c-9 -10 -23 -18 -32 -17 -10 0 -7 4 7 10 13 5 21 13 18 17 -3 5 1 9
9 9 13 0 12 -4 -2 -19z m127 6 c0 -2 -9 -4 -20 -4 -11 0 -20 4 -20 9 0 5 9 7
20 4 11 -3 20 -7 20 -9z m227 -16 c-3 -7 -5 -2 -5 12 0 14 2 19 5 13 2 -7 2
-19 0 -25z m-160 16 c-3 -3 -12 -4 -19 -1 -8 3 -5 6 6 6 11 1 17 -2 13 -5z
m416 -1 c-7 -2 -19 -2 -25 0 -7 3 -2 5 12 5 14 0 19 -2 13 -5z m467 -12 c13
-1 13 -2 0 -11 -8 -5 -19 -5 -25 -1 -5 5 -18 7 -28 6 -9 -2 -15 0 -12 5 2 4
15 6 27 5 13 -1 30 -3 38 -4z m-1000 -51 c18 -12 2 -12 -25 0 -13 6 -15 9 -5
9 8 0 22 -4 30 -9z m47 4 c-3 -3 -12 -4 -19 -1 -8 3 -5 6 6 6 11 1 17 -2 13
-5z m473 -10 c0 -2 -9 -4 -20 -4 -11 0 -20 4 -20 9 0 5 9 7 20 4 11 -3 20 -7
20 -9z m410 6 c0 -5 -17 -9 -37 -9 l-38 2 35 7 c19 4 36 8 38 9 1 0 2 -3 2 -9z
m130 -5 c0 -8 -10 -10 -26 -7 -15 3 -21 8 -15 12 18 11 41 8 41 -5z m-837 -2
c-7 -2 -19 -2 -25 0 -7 3 -2 5 12 5 14 0 19 -2 13 -5z m765 0 c-10 -2 -26 -2
-35 0 -10 3 -2 5 17 5 19 0 27 -2 18 -5z m-993 -24 c-18 -5 -33 -5 -39 1 -7 7
4 10 30 9 39 -1 39 -1 9 -10z m985 1 c0 -5 -2 -10 -4 -10 -3 0 -8 5 -11 10 -3
6 -1 10 4 10 6 0 11 -4 11 -10z m-612 -20 c25 -8 24 -8 -9 -7 -20 1 -36 7 -36
14 0 7 4 10 9 6 5 -3 22 -9 36 -13z m-301 -22 c-3 -7 -5 -2 -5 12 0 14 2 19 5
13 2 -7 2 -19 0 -25z m151 14 c-10 -2 -19 -11 -19 -20 -1 -15 -2 -15 -6 1 -2
9 -13 17 -24 17 -24 0 -25 -17 -1 -23 13 -4 11 -5 -5 -6 -14 -1 -23 5 -23 14
0 10 -11 16 -32 17 -18 1 -1 4 37 7 65 6 112 1 73 -7z m239 -7 c-4 -8 -14 -15
-24 -14 -16 0 -16 1 2 9 18 8 18 9 -5 10 l-25 2 25 7 c30 9 34 7 27 -14z m163
9 c0 -2 -13 -4 -30 -4 -16 0 -30 4 -30 8 0 5 14 7 30 4 17 -2 30 -6 30 -8z
m-713 0 c-3 -3 -12 -4 -19 -1 -8 3 -5 6 6 6 11 1 17 -2 13 -5z m70 0 c-3 -3
-12 -4 -19 -1 -8 3 -5 6 6 6 11 1 17 -2 13 -5z m61 -1 c-10 -2 -26 -2 -35 0
-10 3 -2 5 17 5 19 0 27 -2 18 -5z m244 0 c-24 -3 -32 -8 -28 -19 3 -8 1 -14
-4 -14 -6 0 -10 9 -10 20 0 17 6 20 38 18 l37 -1 -33 -4z m221 0 c-7 -2 -19
-2 -25 0 -7 3 -2 5 12 5 14 0 19 -2 13 -5z m154 1 c-3 -3 -12 -4 -19 -1 -8 3
-5 6 6 6 11 1 17 -2 13 -5z m66 -1 c-7 -2 -19 -2 -25 0 -7 3 -2 5 12 5 14 0
19 -2 13 -5z m70 0 c-7 -2 -19 -2 -25 0 -7 3 -2 5 12 5 14 0 19 -2 13 -5z
m150 0 c-7 -2 -19 -2 -25 0 -7 3 -2 5 12 5 14 0 19 -2 13 -5z m54 1 c-3 -3
-12 -4 -19 -1 -8 3 -5 6 6 6 11 1 17 -2 13 -5z m-1032 -24 c3 -5 1 -10 -4 -10
-6 0 -11 5 -11 10 0 6 2 10 4 10 3 0 8 -4 11 -10z m365 0 c20 -6 17 -8 -17 -6
-24 0 -43 4 -43 9 0 9 27 8 60 -3z m203 -1 c7 0 1 -5 -12 -10 -13 -5 -26 -7
-29 -4 -3 3 1 5 9 5 12 0 11 2 -1 11 -12 9 -12 10 3 5 10 -3 24 -6 30 -7z m37
7 c0 -3 -4 -8 -10 -11 -5 -3 -10 -1 -10 4 0 6 5 11 10 11 6 0 10 -2 10 -4z
m175 -6 c13 -5 14 -9 5 -9 -8 0 -24 4 -35 9 -13 5 -14 9 -5 9 8 0 24 -4 35 -9z
m52 4 c-3 -3 -12 -4 -19 -1 -8 3 -5 6 6 6 11 1 17 -2 13 -5z m183 -4 c0 -5 -5
-10 -11 -10 -5 0 -7 5 -4 10 3 6 8 10 11 10 2 0 4 -4 4 -10z m-1089 -24 c18 3
20 3 6 -4 -10 -4 -18 -12 -17 -17 0 -6 -7 -11 -17 -12 -15 -2 -15 -1 2 6 16 8
16 10 4 10 -9 1 -19 11 -22 24 -5 20 -5 20 7 5 8 -11 21 -15 37 -12z m796 18
c-3 -3 -12 -4 -19 -1 -8 3 -5 6 6 6 11 1 17 -2 13 -5z m-700 -20 c-3 -3 -12
-4 -19 -1 -8 3 -5 6 6 6 11 1 17 -2 13 -5z m140 0 c-3 -3 -12 -4 -19 -1 -8 3
-5 6 6 6 11 1 17 -2 13 -5z m98 -4 c3 -5 -1 -10 -10 -10 -9 0 -13 5 -10 10 3
6 8 10 10 10 2 0 7 -4 10 -10z m79 -2 c-7 -11 -32 -10 -39 2 -3 6 4 9 19 8 13
-1 22 -6 20 -10z m330 1 c3 -3 -4 -5 -14 -6 -11 -1 -20 2 -20 7 0 8 25 8 34
-1z m266 -1 c0 -4 -4 -8 -9 -8 -6 0 -12 4 -15 8 -3 5 1 9 9 9 8 0 15 -4 15 -9z
m107 -5 c0 -7 -4 -13 -9 -13 -4 0 -8 5 -8 11 0 5 -5 7 -12 3 -6 -4 -8 -3 -5 3
9 14 34 12 34 -4z m-662 -21 c-3 -3 -11 0 -18 7 -9 10 -8 11 6 5 10 -3 15 -9
12 -12z m-328 2 c-3 -3 -12 -4 -19 -1 -8 3 -5 6 6 6 11 1 17 -2 13 -5z m530 0
c-3 -3 -12 -4 -19 -1 -8 3 -5 6 6 6 11 1 17 -2 13 -5z m86 -1 c-7 -2 -19 -2
-25 0 -7 3 -2 5 12 5 14 0 19 -2 13 -5z m142 -3 c3 -6 -1 -7 -9 -4 -18 7 -21
14 -7 14 6 0 13 -4 16 -10z m48 3 c-7 -2 -19 -2 -25 0 -7 3 -2 5 12 5 14 0 19
-2 13 -5z m74 1 c-3 -3 -12 -4 -19 -1 -8 3 -5 6 6 6 11 1 17 -2 13 -5z m-1037
-24 c0 -9 -58 -11 -64 -2 -2 4 11 8 30 8 19 0 34 -3 34 -6z m174 2 c2 -4 -9
-8 -25 -7 -16 0 -29 3 -29 7 0 11 47 10 54 0z m313 2 c-3 -3 -12 -4 -19 -1 -8
3 -5 6 6 6 11 1 17 -2 13 -5z m173 -5 c0 -5 -9 -9 -20 -9 -11 0 -20 4 -20 8 0
4 9 8 20 9 11 1 20 -2 20 -8z m145 -1 c2 -2 -25 -5 -60 -5 -36 0 -67 2 -69 6
-5 7 122 7 129 -1z m335 -4 c0 -2 -7 -4 -15 -4 -8 0 -15 4 -15 10 0 5 7 7 15
4 8 -4 15 -8 15 -10z m-1103 0 c-3 -3 -12 -4 -19 -1 -8 3 -5 6 6 6 11 1 17 -2
13 -5z m400 0 c-3 -3 -12 -4 -19 -1 -8 3 -5 6 6 6 11 1 17 -2 13 -5z m90 0
c-3 -3 -12 -4 -19 -1 -8 3 -5 6 6 6 11 1 17 -2 13 -5z m410 0 c-3 -3 -12 -4
-19 -1 -8 3 -5 6 6 6 11 1 17 -2 13 -5z m146 -1 c-7 -2 -19 -2 -25 0 -7 3 -2
5 12 5 14 0 19 -2 13 -5z m-766 -18 c0 -8 -4 -12 -9 -9 -5 3 -6 10 -3 15 9 13
12 11 12 -6z m-392 -5 c-3 -5 -14 -10 -23 -9 -14 0 -13 2 3 9 27 11 27 11 20
0z m53 -22 c24 -3 23 -4 -9 -9 -33 -4 -35 -3 -30 21 3 17 6 20 9 8 2 -9 15
-18 30 -20z m422 22 c13 -9 13 -10 0 -9 -8 0 -24 4 -35 9 l-20 9 20 0 c11 0
27 -4 35 -9z m47 4 c-3 -3 -12 -4 -19 -1 -8 3 -5 6 6 6 11 1 17 -2 13 -5z m77
-3 c3 -4 -6 -6 -19 -3 -14 2 -25 6 -25 8 0 8 39 4 44 -5z m-447 -24 c0 -9 -10
-11 -31 -8 l-31 5 30 7 c17 4 30 7 31 8 0 0 1 -5 1 -12z m46 -4 c-7 -2 -19 -2
-25 0 -7 3 -2 5 12 5 14 0 19 -2 13 -5z m37 -3 c0 -5 -5 -10 -11 -10 -5 0 -7
5 -4 10 3 6 8 10 11 10 2 0 4 -4 4 -10z m97 -22 c-3 -7 -5 -2 -5 12 0 14 2 19
5 13 2 -7 2 -19 0 -25z m33 22 c0 -5 -2 -10 -4 -10 -3 0 -8 5 -11 10 -3 6 -1
10 4 10 6 0 11 -4 11 -10z m110 6 c0 -3 -4 -8 -10 -11 -5 -3 -10 -1 -10 4 0 6
5 11 10 11 6 0 10 -2 10 -4z m150 -6 c0 -5 -5 -10 -11 -10 -5 0 -7 5 -4 10 3
6 8 10 11 10 2 0 4 -4 4 -10z m110 6 c0 -3 -4 -8 -10 -11 -5 -3 -10 -1 -10 4
0 6 5 11 10 11 6 0 10 -2 10 -4z m100 -6 c0 -5 -7 -7 -15 -4 -8 4 -15 8 -15
10 0 2 7 4 15 4 8 0 15 -4 15 -10z m200 0 c11 -7 5 -8 -20 -4 -43 8 -51 14
-19 14 13 0 31 -5 39 -10z m74 1 c4 -5 -3 -7 -14 -4 -23 6 -26 13 -6 13 8 0
17 -4 20 -9z m-617 -27 c-3 -3 -12 -4 -19 -1 -8 3 -5 6 6 6 11 1 17 -2 13 -5z
m350 0 c-3 -3 -12 -4 -19 -1 -8 3 -5 6 6 6 11 1 17 -2 13 -5z m136 -1 c-7 -2
-19 -2 -25 0 -7 3 -2 5 12 5 14 0 19 -2 13 -5z m154 1 c-3 -3 -12 -4 -19 -1
-8 3 -5 6 6 6 11 1 17 -2 13 -5z m-984 -21 c-7 -2 -19 -2 -25 0 -7 3 -2 5 12
5 14 0 19 -2 13 -5z m802 -3 c-3 -5 -12 -10 -18 -10 -7 0 -6 4 3 10 19 12 23
12 15 0z m-800 -20 c3 -6 -1 -7 -9 -4 -18 7 -21 14 -7 14 6 0 13 -4 16 -10z
m318 -2 c-2 -5 -14 -8 -26 -9 -20 -1 -20 -2 3 -9 24 -8 24 -8 3 -9 -12 -1 -27
7 -32 17 -8 15 -4 17 24 17 18 0 31 -3 28 -7z m-376 -20 c-3 -8 -6 -5 -6 6 -1
11 2 17 5 13 3 -3 4 -12 1 -19z m146 15 c-7 -2 -21 -2 -30 0 -10 3 -4 5 12 5
17 0 24 -2 18 -5z m64 1 c-3 -3 -12 -4 -19 -1 -8 3 -5 6 6 6 11 1 17 -2 13 -5z
m83 -9 c0 -9 -9 -15 -22 -14 -21 1 -21 2 -3 7 l20 5 -20 8 c-19 7 -19 8 3 8
13 1 22 -5 22 -14z m337 9 c-3 -3 -12 -4 -19 -1 -8 3 -5 6 6 6 11 1 17 -2 13
-5z m-160 -10 c-3 -3 -12 -4 -19 -1 -8 3 -5 6 6 6 11 1 17 -2 13 -5z m-303
-12 c3 -5 -8 -6 -25 -4 -16 2 -29 6 -29 8 0 8 49 4 54 -4z m-109 -22 c-3 -5
-14 -10 -23 -9 -14 0 -13 2 3 9 27 11 27 11 20 0z m82 -11 c-5 -18 -2 -20 18
-15 13 3 34 2 47 -3 18 -7 12 -9 -29 -9 -48 0 -52 2 -49 21 6 29 5 27 12 27 4
0 4 -9 1 -21z m63 11 c-8 -5 -24 -9 -35 -9 -16 1 -16 2 5 9 35 11 48 11 30 0z
m136 -2 c-21 -12 -69 -13 -73 -2 -2 7 13 11 41 10 24 -1 39 -4 32 -8z m91 6
c-3 -3 -12 -4 -19 -1 -8 3 -5 6 6 6 11 1 17 -2 13 -5z m-40 -10 c-3 -3 -12 -4
-19 -1 -8 3 -5 6 6 6 11 1 17 -2 13 -5z m86 -1 c-7 -2 -19 -2 -25 0 -7 3 -2 5
12 5 14 0 19 -2 13 -5z m267 -3 c0 -5 -2 -10 -4 -10 -3 0 -8 5 -11 10 -3 6 -1
10 4 10 6 0 11 -4 11 -10z m218 -23 c12 -3 10 -5 -5 -6 -18 -1 -23 4 -22 22 1
15 3 17 6 5 2 -9 12 -19 21 -21z m-528 3 c0 -5 -29 -9 -65 -8 -36 1 -65 5 -65
9 0 4 27 5 61 3 46 -4 59 -2 53 7 -4 8 -3 9 4 5 7 -4 12 -11 12 -16z m485 11
c3 -5 1 -12 -5 -16 -5 -3 -10 1 -10 9 0 18 6 21 15 7z m-1085 -9 c0 -4 -12 -8
-27 -9 -24 -1 -25 -1 -8 7 26 11 35 12 35 2z m32 -11 c-5 -3 -12 -13 -15 -21
-3 -9 -6 -4 -6 12 -1 21 3 26 15 21 9 -3 11 -9 6 -12z m86 7 c-16 -10 -45 -10
-51 0 -3 4 10 7 29 8 21 0 30 -3 22 -8z m52 -4 c0 -2 -7 -4 -15 -4 -8 0 -15 4
-15 10 0 5 7 7 15 4 8 -4 15 -8 15 -10z m237 -16 c-3 -7 -5 -2 -5 12 0 14 2
19 5 13 2 -7 2 -19 0 -25z m53 16 c0 -2 -9 -4 -20 -4 -11 0 -20 4 -20 9 0 5 9
7 20 4 11 -3 20 -7 20 -9z m165 6 c3 -5 1 -10 -4 -10 -6 0 -11 5 -11 10 0 6 2
10 4 10 3 0 8 -4 11 -10z m175 -2 c0 -10 -42 -10 -58 0 -8 5 1 8 23 8 19 -1
35 -4 35 -8z m50 2 c0 -5 -8 -10 -17 -10 -15 0 -16 2 -3 10 19 12 20 12 20 0z
m148 -5 c3 -3 -4 -5 -16 -5 -11 0 -23 4 -27 9 -6 10 33 6 43 -4z m-745 -2 c-7
-2 -19 -2 -25 0 -7 3 -2 5 12 5 14 0 19 -2 13 -5z m-312 -20 c13 -16 12 -17
-3 -4 -17 13 -22 21 -14 21 2 0 10 -8 17 -17z m46 -8 c0 -8 -4 -12 -9 -9 -5 3
-6 10 -3 15 9 13 12 11 12 -6z m178 5 c25 -11 -1 -11 -35 0 -20 6 -21 8 -5 8
11 0 29 -3 40 -8z m320 0 c-3 -5 -14 -10 -23 -10 -15 0 -15 2 -2 10 20 13 33
13 25 0z m155 0 c0 -5 -7 -7 -15 -4 -8 4 -15 8 -15 10 0 2 7 4 15 4 8 0 15 -4
15 -10z m-113 -6 c-3 -3 -12 -4 -19 -1 -8 3 -5 6 6 6 11 1 17 -2 13 -5z m-442
-14 c13 -6 15 -9 5 -9 -8 0 -22 4 -30 9 -18 12 -2 12 25 0z m195 -5 c0 -17
-25 -20 -35 -5 -4 6 1 7 11 3 12 -4 15 -3 10 5 -4 7 -2 12 3 12 6 0 11 -7 11
-15z m356 -3 c-10 -10 -56 -10 -56 0 0 6 7 8 15 4 8 -3 15 -1 15 4 0 5 7 7 15
3 9 -3 14 -8 11 -11z m-484 -6 c-18 -6 -30 -14 -27 -18 4 -4 -4 -4 -16 -1 -23
6 -23 7 6 19 17 7 39 13 50 13 13 0 9 -5 -13 -13z m182 5 c3 -4 -6 -6 -19 -3
-14 2 -25 6 -25 8 0 8 39 4 44 -5z m53 3 c-3 -3 -12 -4 -19 -1 -8 3 -5 6 6 6
11 1 17 -2 13 -5z m73 2 c0 -2 -9 -6 -20 -9 -11 -3 -18 -1 -14 4 5 9 34 13 34
5z m80 -6 c0 -5 -2 -10 -4 -10 -3 0 -8 5 -11 10 -3 6 -1 10 4 10 6 0 11 -4 11
-10z m567 -12 c-3 -8 -6 -5 -6 6 -1 11 2 17 5 13 3 -3 4 -12 1 -19z m-721 -23
c1 -8 -2 -15 -6 -15 -5 0 -8 9 -7 20 1 21 10 18 13 -5z m-471 5 c-12 -5 -14
-9 -6 -9 8 -1 12 -4 8 -7 -9 -9 -28 6 -22 17 4 5 14 9 23 8 14 0 13 -2 -3 -9z
m148 3 c-7 -2 -19 -2 -25 0 -7 3 -2 5 12 5 14 0 19 -2 13 -5z m144 1 c-3 -3
-12 -4 -19 -1 -8 3 -5 6 6 6 11 1 17 -2 13 -5z m243 -4 c-8 -5 -22 -9 -30 -9
-10 0 -8 3 5 9 27 12 43 12 25 0z m120 -10 c0 -13 -6 -20 -17 -19 -11 0 -13 3
-5 6 6 2 12 11 12 19 0 8 2 14 5 14 3 0 5 -9 5 -20z m43 13 c-7 -2 -19 -2 -25
0 -7 3 -2 5 12 5 14 0 19 -2 13 -5z m81 -1 c3 -5 -8 -6 -25 -4 -16 2 -29 6
-29 8 0 8 49 4 54 -4z m72 -8 c-5 -12 -1 -14 17 -9 17 5 19 4 6 -4 -8 -6 -26
-7 -39 -4 -23 6 -23 7 -4 15 15 7 14 8 -8 5 -16 -3 -28 0 -28 4 0 5 14 9 31 9
24 0 30 -4 25 -16z m104 6 c-8 -5 -19 -10 -25 -10 -5 0 -3 5 5 10 8 5 20 10
25 10 6 0 3 -5 -5 -10z m87 4 c-3 -3 -12 -4 -19 -1 -8 3 -5 6 6 6 11 1 17 -2
13 -5z m98 -5 c15 -7 13 -8 -12 -3 -25 4 -32 1 -36 -13 -4 -14 -5 -13 -6 5 -1
24 18 28 54 11z m-121 -20 c-3 -5 -13 -9 -22 -8 -11 0 -12 2 -4 6 6 2 10 9 7
14 -4 5 1 6 9 3 9 -3 13 -10 10 -15z m-866 3 c8 -6 -4 -9 -30 -9 -35 -1 -38 0
-18 7 34 11 33 11 48 2z m82 -4 c0 -4 -7 -8 -15 -8 -8 0 -15 4 -15 8 0 5 7 9
15 9 8 0 15 -4 15 -9z m80 0 c0 -5 -13 -8 -30 -8 -16 0 -30 4 -30 8 0 4 14 8
30 7 17 0 30 -3 30 -7z m45 2 c3 -5 1 -10 -4 -10 -6 0 -11 5 -11 10 0 6 2 10
4 10 3 0 8 -4 11 -10z m215 -2 c0 -10 -27 -10 -34 0 -2 4 4 8 15 8 10 0 19 -4
19 -8z m160 -4 c0 -2 -9 -4 -20 -4 -11 0 -20 4 -20 9 0 5 9 7 20 4 11 -3 20
-7 20 -9z m-693 0 c-3 -3 -12 -4 -19 -1 -8 3 -5 6 6 6 11 1 17 -2 13 -5z m396
-1 c-7 -2 -19 -2 -25 0 -7 3 -2 5 12 5 14 0 19 -2 13 -5z m80 0 c-7 -2 -19 -2
-25 0 -7 3 -2 5 12 5 14 0 19 -2 13 -5z m280 0 c-7 -2 -19 -2 -25 0 -7 3 -2 5
12 5 14 0 19 -2 13 -5z m-563 -27 c0 -13 -47 -32 -57 -23 -2 3 8 8 24 11 21 6
24 9 12 17 -12 7 -11 9 4 9 9 0 17 -6 17 -14z m150 10 c0 -2 -11 -6 -25 -8
-14 -3 -25 -1 -25 3 0 5 11 9 25 9 14 0 25 -2 25 -4z m127 -2 c-3 -3 -12 -4
-19 -1 -8 3 -5 6 6 6 11 1 17 -2 13 -5z m93 0 c0 -8 -19 -13 -24 -6 -3 5 1 9
9 9 8 0 15 -2 15 -3z m84 -6 c-3 -4 -9 -8 -15 -8 -5 0 -9 4 -9 8 0 5 7 9 15 9
8 0 12 -4 9 -9z m103 6 c-3 -3 -12 -4 -19 -1 -8 3 -5 6 6 6 11 1 17 -2 13 -5z
m-347 -23 c0 -4 -9 -7 -20 -7 -11 0 -20 6 -20 12 0 7 8 10 20 7 11 -3 20 -8
20 -12z m-293 3 c-3 -3 -12 -4 -19 -1 -8 3 -5 6 6 6 11 1 17 -2 13 -5z m146
-1 c-16 -6 -17 -33 -2 -33 5 0 8 4 5 9 -3 4 7 6 22 3 l27 -6 -25 -7 -25 -7 24
-1 c13 -1 22 -4 18 -7 -11 -11 -67 7 -67 22 0 8 -8 14 -17 15 -15 0 -15 2 2 9
11 5 27 9 35 9 10 -1 11 -2 3 -6z m277 0 c0 -5 -12 -9 -27 -10 -19 -1 -22 1
-12 8 17 11 39 12 39 2z m123 -10 c-7 -2 -19 -2 -25 0 -7 3 -2 5 12 5 14 0 19
-2 13 -5z m64 1 c-3 -3 -12 -4 -19 -1 -8 3 -5 6 6 6 11 1 17 -2 13 -5z m86 -1
c-7 -2 -19 -2 -25 0 -7 3 -2 5 12 5 14 0 19 -2 13 -5z m-773 -18 c0 -11 -7
-14 -27 -10 -23 4 -25 4 -8 -4 25 -12 -1 -13 -30 -1 -18 7 -17 8 10 15 17 4
35 8 40 10 6 2 11 4 13 4 1 1 2 -6 2 -14z m-93 -1 c-3 -3 -12 -4 -19 -1 -8 3
-5 6 6 6 11 1 17 -2 13 -5z m136 -1 c-7 -2 -19 -2 -25 0 -7 3 -2 5 12 5 14 0
19 -2 13 -5z m90 0 c-7 -2 -21 -2 -30 0 -10 3 -4 5 12 5 17 0 24 -2 18 -5z
m204 1 c-3 -3 -12 -4 -19 -1 -8 3 -5 6 6 6 11 1 17 -2 13 -5z m48 -4 l-20 -9
20 -1 20 -1 -20 -9 c-30 -13 -34 -12 -28 10 3 12 13 20 27 19 20 0 20 -1 1 -9z
m85 6 c0 -2 -9 -6 -20 -9 -11 -3 -18 -1 -14 4 5 9 34 13 34 5z m73 -3 c-7 -2
-19 -2 -25 0 -7 3 -2 5 12 5 14 0 19 -2 13 -5z m60 0 c-7 -2 -21 -2 -30 0 -10
3 -4 5 12 5 17 0 24 -2 18 -5z m80 0 c-7 -2 -19 -2 -25 0 -7 3 -2 5 12 5 14 0
19 -2 13 -5z m234 -15 c-3 -8 -6 -5 -6 6 -1 11 2 17 5 13 3 -3 4 -12 1 -19z
m-757 -3 c0 -8 -8 -15 -17 -16 -15 0 -15 -2 2 -8 11 -5 30 -7 43 -5 16 3 22 0
21 -13 0 -10 -3 -13 -5 -6 -3 7 -11 10 -17 7 -7 -2 -30 2 -52 10 l-40 14 28 7
c15 4 27 11 27 16 0 5 2 9 5 9 3 0 5 -7 5 -15z m-135 -5 c-3 -5 -14 -10 -23
-10 -15 0 -15 2 -2 10 20 13 33 13 25 0z m525 0 c0 -5 -2 -10 -4 -10 -3 0 -8
5 -11 10 -3 6 -1 10 4 10 6 0 11 -4 11 -10z m233 3 c-7 -2 -19 -2 -25 0 -7 3
-2 5 12 5 14 0 19 -2 13 -5z m57 -3 c0 -5 -4 -10 -10 -10 -5 0 -10 5 -10 10 0
6 5 10 10 10 6 0 10 -4 10 -10z m-570 -29 c7 -14 7 -22 0 -26 -6 -4 -10 -3 -9
2 4 22 -3 32 -18 27 -15 -5 -16 -4 -3 5 19 14 18 14 30 -8z m117 -3 c-3 -8 -6
-5 -6 6 -1 11 2 17 5 13 3 -3 4 -12 1 -19z m91 9 c14 6 15 5 2 -9 -15 -16 -31
-7 -29 17 0 6 3 5 5 -2 3 -7 13 -9 22 -6z m586 -3 c3 -8 2 -12 -4 -9 -6 3 -10
10 -10 16 0 14 7 11 14 -7z m-737 0 c-3 -3 -12 -4 -19 -1 -8 3 -5 6 6 6 11 1
17 -2 13 -5z m40 0 c-3 -3 -12 -4 -19 -1 -8 3 -5 6 6 6 11 1 17 -2 13 -5z m70
0 c-3 -3 -12 -4 -19 -1 -8 3 -5 6 6 6 11 1 17 -2 13 -5z m170 0 c-3 -3 -12 -4
-19 -1 -8 3 -5 6 6 6 11 1 17 -2 13 -5z m166 -1 c-7 -2 -19 -2 -25 0 -7 3 -2
5 12 5 14 0 19 -2 13 -5z m144 -1 c6 -4 -6 -8 -29 -8 -26 -1 -35 2 -27 7 17
11 40 11 56 1z m66 1 c-7 -2 -21 -2 -30 0 -10 3 -4 5 12 5 17 0 24 -2 18 -5z
m50 0 c-7 -2 -19 -2 -25 0 -7 3 -2 5 12 5 14 0 19 -2 13 -5z m-700 -29 c-3 -9
-9 -12 -12 -7 -3 4 -10 11 -15 16 -5 4 0 7 12 7 15 0 20 -4 15 -16z m527 7
c17 -5 7 -8 -35 -8 -39 0 -53 3 -40 8 24 9 42 9 75 0z m-423 -27 c-3 -3 -12
-4 -19 -1 -8 3 -5 6 6 6 11 1 17 -2 13 -5z m113 -4 c0 -7 -15 -9 -37 -6 -30 4
-33 4 -13 -3 29 -10 7 -14 -27 -5 -40 11 -25 24 27 24 28 0 50 -5 50 -10z m60
0 c0 -5 -7 -7 -15 -4 -8 4 -15 8 -15 10 0 2 7 4 15 4 8 0 15 -4 15 -10z m119
6 c-2 -2 -17 -6 -34 -10 -22 -5 -26 -4 -15 4 14 9 59 15 49 6z m86 -6 c3 -5 1
-10 -4 -10 -6 0 -11 5 -11 10 0 6 2 10 4 10 3 0 8 -4 11 -10z m105 2 c-21 -7
-9 -21 23 -25 31 -4 31 -4 -5 -5 -21 -1 -38 2 -38 7 0 4 -15 13 -32 18 -32 10
-32 10 14 9 27 0 43 -2 38 -4z m77 2 c-3 -3 -12 -4 -19 -1 -8 3 -5 6 6 6 11 1
17 -2 13 -5z m-347 -26 c0 -4 -15 -8 -32 -7 -26 0 -29 2 -13 8 25 10 45 10 45
-1z m80 -1 c-10 -9 -70 -16 -70 -9 0 4 17 9 37 10 21 2 35 1 33 -1z m127 -3
c-3 -3 -12 -4 -19 -1 -8 3 -5 6 6 6 11 1 17 -2 13 -5z m-73 -26 c-5 -7 -2 -9
7 -6 8 3 21 -2 29 -10 13 -14 12 -15 -4 -9 -10 4 -30 10 -44 14 -24 6 -25 7
-7 14 27 10 27 10 19 -3z m112 -6 c-16 -2 -32 0 -37 5 -5 5 7 7 29 4 34 -5 35
-6 8 -9z m-21 -22 c-3 -5 -12 -10 -18 -10 -7 0 -6 4 3 10 19 12 23 12 15 0z
m95 -4 c0 -2 -7 -6 -15 -10 -8 -3 -15 -1 -15 4 0 6 7 10 15 10 8 0 15 -2 15
-4z"/>
<path d="M713 1593 c6 -10 82 -33 107 -33 26 0 -3 18 -39 24 -22 3 -47 9 -57
13 -11 4 -15 3 -11 -4z"/>
<path d="M956 1532 c12 -12 124 -35 131 -28 7 6 -3 10 -69 25 -57 13 -75 14
-62 3z"/>
<path d="M795 1445 c34 -16 74 -20 60 -6 -6 5 -28 12 -50 15 l-40 6 30 -15z"/>
</g>
</svg>
